%
M48
M72
T01C0.02362
T02C0.02756
T03C0.03150
T04C0.03200
T05C0.03543
T06C0.03937
T07C0.04000
T08C0.05512
T09C0.07200
T10C0.15000
%
T01
X266800Y79300
X266800Y79300
X266800Y79300
T02
X111800Y96800
X121800Y96800
X209320Y184300
X216800Y184300
X224674Y184300
T03
X144300Y106800
X154300Y106800
X164300Y106800
X174300Y106800
X184300Y106800
X194300Y106800
X204300Y106800
X214300Y106800
X224300Y106800
X234300Y106800
X244300Y106800
X254300Y106800
X264300Y111800
X264300Y121800
X264300Y131800
X264300Y141800
X264300Y151800
X264300Y161800
X254300Y166800
X244300Y166800
X234300Y166800
X224300Y166800
X214300Y166800
X204300Y166800
X194300Y166800
X184300Y166800
X174300Y166800
X164300Y166800
X154300Y166800
X144300Y166800
X144300Y141800
X144300Y131800
X144300Y121800
X209300Y121800
X219300Y121800
T04
X29300Y116800
X29300Y106800
X29300Y96800
T05
X56800Y116800
X86800Y116800
X201800Y141800
X209300Y131800
X231800Y141800
X239300Y131800
T06
X111800Y134300
X121800Y134300
X121800Y144300
X111800Y144300
X111800Y154300
X121800Y154300
X121800Y164300
X111800Y164300
T07
X111300Y114300
X122300Y114300
X189300Y131300
X189300Y142300
X184300Y184300
X174300Y184300
X164300Y184300
X154300Y184300
X144300Y184300
X134300Y184300
T08
X197902Y184300
X235698Y184300
T09
X47784Y59261
X47784Y39261
X21217Y49261
X235816Y39339
X235816Y59339
X262383Y49339
T10
X16800Y186800
X16800Y16800
X271800Y16800
X271800Y186800
M30
