G75*
%MOIN*%
%OFA0B0*%
%FSLAX25Y25*%
%IPPOS*%
%LPD*%
%AMOC8*
5,1,8,0,0,1.08239X$1,22.5*
%
%ADD10C,0.00000*%
%ADD11C,0.15800*%
%ADD12C,0.03162*%
%ADD13C,0.11600*%
%ADD14C,0.00500*%
%ADD15C,0.02800*%
%ADD16R,0.06737X0.06737*%
%ADD17C,0.06737*%
%ADD18C,0.08200*%
%ADD19C,0.06400*%
%ADD20C,0.10800*%
%ADD21OC8,0.06800*%
%ADD22C,0.05950*%
%ADD23C,0.05950*%
%ADD24C,0.04762*%
D10*
X0001800Y0001800D02*
X0001800Y0201800D01*
X0281800Y0201800D01*
X0281800Y0001800D01*
X0001800Y0001800D01*
X0009300Y0016800D02*
X0009302Y0016984D01*
X0009309Y0017168D01*
X0009320Y0017352D01*
X0009336Y0017535D01*
X0009356Y0017718D01*
X0009381Y0017900D01*
X0009410Y0018082D01*
X0009444Y0018263D01*
X0009482Y0018443D01*
X0009525Y0018622D01*
X0009572Y0018800D01*
X0009623Y0018977D01*
X0009679Y0019153D01*
X0009738Y0019327D01*
X0009803Y0019499D01*
X0009871Y0019670D01*
X0009943Y0019839D01*
X0010020Y0020007D01*
X0010101Y0020172D01*
X0010186Y0020335D01*
X0010274Y0020497D01*
X0010367Y0020656D01*
X0010464Y0020812D01*
X0010564Y0020967D01*
X0010668Y0021119D01*
X0010776Y0021268D01*
X0010887Y0021414D01*
X0011002Y0021558D01*
X0011121Y0021699D01*
X0011243Y0021837D01*
X0011368Y0021972D01*
X0011497Y0022103D01*
X0011628Y0022232D01*
X0011763Y0022357D01*
X0011901Y0022479D01*
X0012042Y0022598D01*
X0012186Y0022713D01*
X0012332Y0022824D01*
X0012481Y0022932D01*
X0012633Y0023036D01*
X0012788Y0023136D01*
X0012944Y0023233D01*
X0013103Y0023326D01*
X0013265Y0023414D01*
X0013428Y0023499D01*
X0013593Y0023580D01*
X0013761Y0023657D01*
X0013930Y0023729D01*
X0014101Y0023797D01*
X0014273Y0023862D01*
X0014447Y0023921D01*
X0014623Y0023977D01*
X0014800Y0024028D01*
X0014978Y0024075D01*
X0015157Y0024118D01*
X0015337Y0024156D01*
X0015518Y0024190D01*
X0015700Y0024219D01*
X0015882Y0024244D01*
X0016065Y0024264D01*
X0016248Y0024280D01*
X0016432Y0024291D01*
X0016616Y0024298D01*
X0016800Y0024300D01*
X0016984Y0024298D01*
X0017168Y0024291D01*
X0017352Y0024280D01*
X0017535Y0024264D01*
X0017718Y0024244D01*
X0017900Y0024219D01*
X0018082Y0024190D01*
X0018263Y0024156D01*
X0018443Y0024118D01*
X0018622Y0024075D01*
X0018800Y0024028D01*
X0018977Y0023977D01*
X0019153Y0023921D01*
X0019327Y0023862D01*
X0019499Y0023797D01*
X0019670Y0023729D01*
X0019839Y0023657D01*
X0020007Y0023580D01*
X0020172Y0023499D01*
X0020335Y0023414D01*
X0020497Y0023326D01*
X0020656Y0023233D01*
X0020812Y0023136D01*
X0020967Y0023036D01*
X0021119Y0022932D01*
X0021268Y0022824D01*
X0021414Y0022713D01*
X0021558Y0022598D01*
X0021699Y0022479D01*
X0021837Y0022357D01*
X0021972Y0022232D01*
X0022103Y0022103D01*
X0022232Y0021972D01*
X0022357Y0021837D01*
X0022479Y0021699D01*
X0022598Y0021558D01*
X0022713Y0021414D01*
X0022824Y0021268D01*
X0022932Y0021119D01*
X0023036Y0020967D01*
X0023136Y0020812D01*
X0023233Y0020656D01*
X0023326Y0020497D01*
X0023414Y0020335D01*
X0023499Y0020172D01*
X0023580Y0020007D01*
X0023657Y0019839D01*
X0023729Y0019670D01*
X0023797Y0019499D01*
X0023862Y0019327D01*
X0023921Y0019153D01*
X0023977Y0018977D01*
X0024028Y0018800D01*
X0024075Y0018622D01*
X0024118Y0018443D01*
X0024156Y0018263D01*
X0024190Y0018082D01*
X0024219Y0017900D01*
X0024244Y0017718D01*
X0024264Y0017535D01*
X0024280Y0017352D01*
X0024291Y0017168D01*
X0024298Y0016984D01*
X0024300Y0016800D01*
X0024298Y0016616D01*
X0024291Y0016432D01*
X0024280Y0016248D01*
X0024264Y0016065D01*
X0024244Y0015882D01*
X0024219Y0015700D01*
X0024190Y0015518D01*
X0024156Y0015337D01*
X0024118Y0015157D01*
X0024075Y0014978D01*
X0024028Y0014800D01*
X0023977Y0014623D01*
X0023921Y0014447D01*
X0023862Y0014273D01*
X0023797Y0014101D01*
X0023729Y0013930D01*
X0023657Y0013761D01*
X0023580Y0013593D01*
X0023499Y0013428D01*
X0023414Y0013265D01*
X0023326Y0013103D01*
X0023233Y0012944D01*
X0023136Y0012788D01*
X0023036Y0012633D01*
X0022932Y0012481D01*
X0022824Y0012332D01*
X0022713Y0012186D01*
X0022598Y0012042D01*
X0022479Y0011901D01*
X0022357Y0011763D01*
X0022232Y0011628D01*
X0022103Y0011497D01*
X0021972Y0011368D01*
X0021837Y0011243D01*
X0021699Y0011121D01*
X0021558Y0011002D01*
X0021414Y0010887D01*
X0021268Y0010776D01*
X0021119Y0010668D01*
X0020967Y0010564D01*
X0020812Y0010464D01*
X0020656Y0010367D01*
X0020497Y0010274D01*
X0020335Y0010186D01*
X0020172Y0010101D01*
X0020007Y0010020D01*
X0019839Y0009943D01*
X0019670Y0009871D01*
X0019499Y0009803D01*
X0019327Y0009738D01*
X0019153Y0009679D01*
X0018977Y0009623D01*
X0018800Y0009572D01*
X0018622Y0009525D01*
X0018443Y0009482D01*
X0018263Y0009444D01*
X0018082Y0009410D01*
X0017900Y0009381D01*
X0017718Y0009356D01*
X0017535Y0009336D01*
X0017352Y0009320D01*
X0017168Y0009309D01*
X0016984Y0009302D01*
X0016800Y0009300D01*
X0016616Y0009302D01*
X0016432Y0009309D01*
X0016248Y0009320D01*
X0016065Y0009336D01*
X0015882Y0009356D01*
X0015700Y0009381D01*
X0015518Y0009410D01*
X0015337Y0009444D01*
X0015157Y0009482D01*
X0014978Y0009525D01*
X0014800Y0009572D01*
X0014623Y0009623D01*
X0014447Y0009679D01*
X0014273Y0009738D01*
X0014101Y0009803D01*
X0013930Y0009871D01*
X0013761Y0009943D01*
X0013593Y0010020D01*
X0013428Y0010101D01*
X0013265Y0010186D01*
X0013103Y0010274D01*
X0012944Y0010367D01*
X0012788Y0010464D01*
X0012633Y0010564D01*
X0012481Y0010668D01*
X0012332Y0010776D01*
X0012186Y0010887D01*
X0012042Y0011002D01*
X0011901Y0011121D01*
X0011763Y0011243D01*
X0011628Y0011368D01*
X0011497Y0011497D01*
X0011368Y0011628D01*
X0011243Y0011763D01*
X0011121Y0011901D01*
X0011002Y0012042D01*
X0010887Y0012186D01*
X0010776Y0012332D01*
X0010668Y0012481D01*
X0010564Y0012633D01*
X0010464Y0012788D01*
X0010367Y0012944D01*
X0010274Y0013103D01*
X0010186Y0013265D01*
X0010101Y0013428D01*
X0010020Y0013593D01*
X0009943Y0013761D01*
X0009871Y0013930D01*
X0009803Y0014101D01*
X0009738Y0014273D01*
X0009679Y0014447D01*
X0009623Y0014623D01*
X0009572Y0014800D01*
X0009525Y0014978D01*
X0009482Y0015157D01*
X0009444Y0015337D01*
X0009410Y0015518D01*
X0009381Y0015700D01*
X0009356Y0015882D01*
X0009336Y0016065D01*
X0009320Y0016248D01*
X0009309Y0016432D01*
X0009302Y0016616D01*
X0009300Y0016800D01*
X0009300Y0186800D02*
X0009302Y0186984D01*
X0009309Y0187168D01*
X0009320Y0187352D01*
X0009336Y0187535D01*
X0009356Y0187718D01*
X0009381Y0187900D01*
X0009410Y0188082D01*
X0009444Y0188263D01*
X0009482Y0188443D01*
X0009525Y0188622D01*
X0009572Y0188800D01*
X0009623Y0188977D01*
X0009679Y0189153D01*
X0009738Y0189327D01*
X0009803Y0189499D01*
X0009871Y0189670D01*
X0009943Y0189839D01*
X0010020Y0190007D01*
X0010101Y0190172D01*
X0010186Y0190335D01*
X0010274Y0190497D01*
X0010367Y0190656D01*
X0010464Y0190812D01*
X0010564Y0190967D01*
X0010668Y0191119D01*
X0010776Y0191268D01*
X0010887Y0191414D01*
X0011002Y0191558D01*
X0011121Y0191699D01*
X0011243Y0191837D01*
X0011368Y0191972D01*
X0011497Y0192103D01*
X0011628Y0192232D01*
X0011763Y0192357D01*
X0011901Y0192479D01*
X0012042Y0192598D01*
X0012186Y0192713D01*
X0012332Y0192824D01*
X0012481Y0192932D01*
X0012633Y0193036D01*
X0012788Y0193136D01*
X0012944Y0193233D01*
X0013103Y0193326D01*
X0013265Y0193414D01*
X0013428Y0193499D01*
X0013593Y0193580D01*
X0013761Y0193657D01*
X0013930Y0193729D01*
X0014101Y0193797D01*
X0014273Y0193862D01*
X0014447Y0193921D01*
X0014623Y0193977D01*
X0014800Y0194028D01*
X0014978Y0194075D01*
X0015157Y0194118D01*
X0015337Y0194156D01*
X0015518Y0194190D01*
X0015700Y0194219D01*
X0015882Y0194244D01*
X0016065Y0194264D01*
X0016248Y0194280D01*
X0016432Y0194291D01*
X0016616Y0194298D01*
X0016800Y0194300D01*
X0016984Y0194298D01*
X0017168Y0194291D01*
X0017352Y0194280D01*
X0017535Y0194264D01*
X0017718Y0194244D01*
X0017900Y0194219D01*
X0018082Y0194190D01*
X0018263Y0194156D01*
X0018443Y0194118D01*
X0018622Y0194075D01*
X0018800Y0194028D01*
X0018977Y0193977D01*
X0019153Y0193921D01*
X0019327Y0193862D01*
X0019499Y0193797D01*
X0019670Y0193729D01*
X0019839Y0193657D01*
X0020007Y0193580D01*
X0020172Y0193499D01*
X0020335Y0193414D01*
X0020497Y0193326D01*
X0020656Y0193233D01*
X0020812Y0193136D01*
X0020967Y0193036D01*
X0021119Y0192932D01*
X0021268Y0192824D01*
X0021414Y0192713D01*
X0021558Y0192598D01*
X0021699Y0192479D01*
X0021837Y0192357D01*
X0021972Y0192232D01*
X0022103Y0192103D01*
X0022232Y0191972D01*
X0022357Y0191837D01*
X0022479Y0191699D01*
X0022598Y0191558D01*
X0022713Y0191414D01*
X0022824Y0191268D01*
X0022932Y0191119D01*
X0023036Y0190967D01*
X0023136Y0190812D01*
X0023233Y0190656D01*
X0023326Y0190497D01*
X0023414Y0190335D01*
X0023499Y0190172D01*
X0023580Y0190007D01*
X0023657Y0189839D01*
X0023729Y0189670D01*
X0023797Y0189499D01*
X0023862Y0189327D01*
X0023921Y0189153D01*
X0023977Y0188977D01*
X0024028Y0188800D01*
X0024075Y0188622D01*
X0024118Y0188443D01*
X0024156Y0188263D01*
X0024190Y0188082D01*
X0024219Y0187900D01*
X0024244Y0187718D01*
X0024264Y0187535D01*
X0024280Y0187352D01*
X0024291Y0187168D01*
X0024298Y0186984D01*
X0024300Y0186800D01*
X0024298Y0186616D01*
X0024291Y0186432D01*
X0024280Y0186248D01*
X0024264Y0186065D01*
X0024244Y0185882D01*
X0024219Y0185700D01*
X0024190Y0185518D01*
X0024156Y0185337D01*
X0024118Y0185157D01*
X0024075Y0184978D01*
X0024028Y0184800D01*
X0023977Y0184623D01*
X0023921Y0184447D01*
X0023862Y0184273D01*
X0023797Y0184101D01*
X0023729Y0183930D01*
X0023657Y0183761D01*
X0023580Y0183593D01*
X0023499Y0183428D01*
X0023414Y0183265D01*
X0023326Y0183103D01*
X0023233Y0182944D01*
X0023136Y0182788D01*
X0023036Y0182633D01*
X0022932Y0182481D01*
X0022824Y0182332D01*
X0022713Y0182186D01*
X0022598Y0182042D01*
X0022479Y0181901D01*
X0022357Y0181763D01*
X0022232Y0181628D01*
X0022103Y0181497D01*
X0021972Y0181368D01*
X0021837Y0181243D01*
X0021699Y0181121D01*
X0021558Y0181002D01*
X0021414Y0180887D01*
X0021268Y0180776D01*
X0021119Y0180668D01*
X0020967Y0180564D01*
X0020812Y0180464D01*
X0020656Y0180367D01*
X0020497Y0180274D01*
X0020335Y0180186D01*
X0020172Y0180101D01*
X0020007Y0180020D01*
X0019839Y0179943D01*
X0019670Y0179871D01*
X0019499Y0179803D01*
X0019327Y0179738D01*
X0019153Y0179679D01*
X0018977Y0179623D01*
X0018800Y0179572D01*
X0018622Y0179525D01*
X0018443Y0179482D01*
X0018263Y0179444D01*
X0018082Y0179410D01*
X0017900Y0179381D01*
X0017718Y0179356D01*
X0017535Y0179336D01*
X0017352Y0179320D01*
X0017168Y0179309D01*
X0016984Y0179302D01*
X0016800Y0179300D01*
X0016616Y0179302D01*
X0016432Y0179309D01*
X0016248Y0179320D01*
X0016065Y0179336D01*
X0015882Y0179356D01*
X0015700Y0179381D01*
X0015518Y0179410D01*
X0015337Y0179444D01*
X0015157Y0179482D01*
X0014978Y0179525D01*
X0014800Y0179572D01*
X0014623Y0179623D01*
X0014447Y0179679D01*
X0014273Y0179738D01*
X0014101Y0179803D01*
X0013930Y0179871D01*
X0013761Y0179943D01*
X0013593Y0180020D01*
X0013428Y0180101D01*
X0013265Y0180186D01*
X0013103Y0180274D01*
X0012944Y0180367D01*
X0012788Y0180464D01*
X0012633Y0180564D01*
X0012481Y0180668D01*
X0012332Y0180776D01*
X0012186Y0180887D01*
X0012042Y0181002D01*
X0011901Y0181121D01*
X0011763Y0181243D01*
X0011628Y0181368D01*
X0011497Y0181497D01*
X0011368Y0181628D01*
X0011243Y0181763D01*
X0011121Y0181901D01*
X0011002Y0182042D01*
X0010887Y0182186D01*
X0010776Y0182332D01*
X0010668Y0182481D01*
X0010564Y0182633D01*
X0010464Y0182788D01*
X0010367Y0182944D01*
X0010274Y0183103D01*
X0010186Y0183265D01*
X0010101Y0183428D01*
X0010020Y0183593D01*
X0009943Y0183761D01*
X0009871Y0183930D01*
X0009803Y0184101D01*
X0009738Y0184273D01*
X0009679Y0184447D01*
X0009623Y0184623D01*
X0009572Y0184800D01*
X0009525Y0184978D01*
X0009482Y0185157D01*
X0009444Y0185337D01*
X0009410Y0185518D01*
X0009381Y0185700D01*
X0009356Y0185882D01*
X0009336Y0186065D01*
X0009320Y0186248D01*
X0009309Y0186432D01*
X0009302Y0186616D01*
X0009300Y0186800D01*
X0265619Y0079300D02*
X0265621Y0079369D01*
X0265627Y0079437D01*
X0265637Y0079505D01*
X0265651Y0079572D01*
X0265669Y0079639D01*
X0265690Y0079704D01*
X0265716Y0079768D01*
X0265745Y0079830D01*
X0265777Y0079890D01*
X0265813Y0079949D01*
X0265853Y0080005D01*
X0265895Y0080059D01*
X0265941Y0080110D01*
X0265990Y0080159D01*
X0266041Y0080205D01*
X0266095Y0080247D01*
X0266151Y0080287D01*
X0266209Y0080323D01*
X0266270Y0080355D01*
X0266332Y0080384D01*
X0266396Y0080410D01*
X0266461Y0080431D01*
X0266528Y0080449D01*
X0266595Y0080463D01*
X0266663Y0080473D01*
X0266731Y0080479D01*
X0266800Y0080481D01*
X0266869Y0080479D01*
X0266937Y0080473D01*
X0267005Y0080463D01*
X0267072Y0080449D01*
X0267139Y0080431D01*
X0267204Y0080410D01*
X0267268Y0080384D01*
X0267330Y0080355D01*
X0267390Y0080323D01*
X0267449Y0080287D01*
X0267505Y0080247D01*
X0267559Y0080205D01*
X0267610Y0080159D01*
X0267659Y0080110D01*
X0267705Y0080059D01*
X0267747Y0080005D01*
X0267787Y0079949D01*
X0267823Y0079890D01*
X0267855Y0079830D01*
X0267884Y0079768D01*
X0267910Y0079704D01*
X0267931Y0079639D01*
X0267949Y0079572D01*
X0267963Y0079505D01*
X0267973Y0079437D01*
X0267979Y0079369D01*
X0267981Y0079300D01*
X0267979Y0079231D01*
X0267973Y0079163D01*
X0267963Y0079095D01*
X0267949Y0079028D01*
X0267931Y0078961D01*
X0267910Y0078896D01*
X0267884Y0078832D01*
X0267855Y0078770D01*
X0267823Y0078709D01*
X0267787Y0078651D01*
X0267747Y0078595D01*
X0267705Y0078541D01*
X0267659Y0078490D01*
X0267610Y0078441D01*
X0267559Y0078395D01*
X0267505Y0078353D01*
X0267449Y0078313D01*
X0267391Y0078277D01*
X0267330Y0078245D01*
X0267268Y0078216D01*
X0267204Y0078190D01*
X0267139Y0078169D01*
X0267072Y0078151D01*
X0267005Y0078137D01*
X0266937Y0078127D01*
X0266869Y0078121D01*
X0266800Y0078119D01*
X0266731Y0078121D01*
X0266663Y0078127D01*
X0266595Y0078137D01*
X0266528Y0078151D01*
X0266461Y0078169D01*
X0266396Y0078190D01*
X0266332Y0078216D01*
X0266270Y0078245D01*
X0266209Y0078277D01*
X0266151Y0078313D01*
X0266095Y0078353D01*
X0266041Y0078395D01*
X0265990Y0078441D01*
X0265941Y0078490D01*
X0265895Y0078541D01*
X0265853Y0078595D01*
X0265813Y0078651D01*
X0265777Y0078709D01*
X0265745Y0078770D01*
X0265716Y0078832D01*
X0265690Y0078896D01*
X0265669Y0078961D01*
X0265651Y0079028D01*
X0265637Y0079095D01*
X0265627Y0079163D01*
X0265621Y0079231D01*
X0265619Y0079300D01*
X0264300Y0016800D02*
X0264302Y0016984D01*
X0264309Y0017168D01*
X0264320Y0017352D01*
X0264336Y0017535D01*
X0264356Y0017718D01*
X0264381Y0017900D01*
X0264410Y0018082D01*
X0264444Y0018263D01*
X0264482Y0018443D01*
X0264525Y0018622D01*
X0264572Y0018800D01*
X0264623Y0018977D01*
X0264679Y0019153D01*
X0264738Y0019327D01*
X0264803Y0019499D01*
X0264871Y0019670D01*
X0264943Y0019839D01*
X0265020Y0020007D01*
X0265101Y0020172D01*
X0265186Y0020335D01*
X0265274Y0020497D01*
X0265367Y0020656D01*
X0265464Y0020812D01*
X0265564Y0020967D01*
X0265668Y0021119D01*
X0265776Y0021268D01*
X0265887Y0021414D01*
X0266002Y0021558D01*
X0266121Y0021699D01*
X0266243Y0021837D01*
X0266368Y0021972D01*
X0266497Y0022103D01*
X0266628Y0022232D01*
X0266763Y0022357D01*
X0266901Y0022479D01*
X0267042Y0022598D01*
X0267186Y0022713D01*
X0267332Y0022824D01*
X0267481Y0022932D01*
X0267633Y0023036D01*
X0267788Y0023136D01*
X0267944Y0023233D01*
X0268103Y0023326D01*
X0268265Y0023414D01*
X0268428Y0023499D01*
X0268593Y0023580D01*
X0268761Y0023657D01*
X0268930Y0023729D01*
X0269101Y0023797D01*
X0269273Y0023862D01*
X0269447Y0023921D01*
X0269623Y0023977D01*
X0269800Y0024028D01*
X0269978Y0024075D01*
X0270157Y0024118D01*
X0270337Y0024156D01*
X0270518Y0024190D01*
X0270700Y0024219D01*
X0270882Y0024244D01*
X0271065Y0024264D01*
X0271248Y0024280D01*
X0271432Y0024291D01*
X0271616Y0024298D01*
X0271800Y0024300D01*
X0271984Y0024298D01*
X0272168Y0024291D01*
X0272352Y0024280D01*
X0272535Y0024264D01*
X0272718Y0024244D01*
X0272900Y0024219D01*
X0273082Y0024190D01*
X0273263Y0024156D01*
X0273443Y0024118D01*
X0273622Y0024075D01*
X0273800Y0024028D01*
X0273977Y0023977D01*
X0274153Y0023921D01*
X0274327Y0023862D01*
X0274499Y0023797D01*
X0274670Y0023729D01*
X0274839Y0023657D01*
X0275007Y0023580D01*
X0275172Y0023499D01*
X0275335Y0023414D01*
X0275497Y0023326D01*
X0275656Y0023233D01*
X0275812Y0023136D01*
X0275967Y0023036D01*
X0276119Y0022932D01*
X0276268Y0022824D01*
X0276414Y0022713D01*
X0276558Y0022598D01*
X0276699Y0022479D01*
X0276837Y0022357D01*
X0276972Y0022232D01*
X0277103Y0022103D01*
X0277232Y0021972D01*
X0277357Y0021837D01*
X0277479Y0021699D01*
X0277598Y0021558D01*
X0277713Y0021414D01*
X0277824Y0021268D01*
X0277932Y0021119D01*
X0278036Y0020967D01*
X0278136Y0020812D01*
X0278233Y0020656D01*
X0278326Y0020497D01*
X0278414Y0020335D01*
X0278499Y0020172D01*
X0278580Y0020007D01*
X0278657Y0019839D01*
X0278729Y0019670D01*
X0278797Y0019499D01*
X0278862Y0019327D01*
X0278921Y0019153D01*
X0278977Y0018977D01*
X0279028Y0018800D01*
X0279075Y0018622D01*
X0279118Y0018443D01*
X0279156Y0018263D01*
X0279190Y0018082D01*
X0279219Y0017900D01*
X0279244Y0017718D01*
X0279264Y0017535D01*
X0279280Y0017352D01*
X0279291Y0017168D01*
X0279298Y0016984D01*
X0279300Y0016800D01*
X0279298Y0016616D01*
X0279291Y0016432D01*
X0279280Y0016248D01*
X0279264Y0016065D01*
X0279244Y0015882D01*
X0279219Y0015700D01*
X0279190Y0015518D01*
X0279156Y0015337D01*
X0279118Y0015157D01*
X0279075Y0014978D01*
X0279028Y0014800D01*
X0278977Y0014623D01*
X0278921Y0014447D01*
X0278862Y0014273D01*
X0278797Y0014101D01*
X0278729Y0013930D01*
X0278657Y0013761D01*
X0278580Y0013593D01*
X0278499Y0013428D01*
X0278414Y0013265D01*
X0278326Y0013103D01*
X0278233Y0012944D01*
X0278136Y0012788D01*
X0278036Y0012633D01*
X0277932Y0012481D01*
X0277824Y0012332D01*
X0277713Y0012186D01*
X0277598Y0012042D01*
X0277479Y0011901D01*
X0277357Y0011763D01*
X0277232Y0011628D01*
X0277103Y0011497D01*
X0276972Y0011368D01*
X0276837Y0011243D01*
X0276699Y0011121D01*
X0276558Y0011002D01*
X0276414Y0010887D01*
X0276268Y0010776D01*
X0276119Y0010668D01*
X0275967Y0010564D01*
X0275812Y0010464D01*
X0275656Y0010367D01*
X0275497Y0010274D01*
X0275335Y0010186D01*
X0275172Y0010101D01*
X0275007Y0010020D01*
X0274839Y0009943D01*
X0274670Y0009871D01*
X0274499Y0009803D01*
X0274327Y0009738D01*
X0274153Y0009679D01*
X0273977Y0009623D01*
X0273800Y0009572D01*
X0273622Y0009525D01*
X0273443Y0009482D01*
X0273263Y0009444D01*
X0273082Y0009410D01*
X0272900Y0009381D01*
X0272718Y0009356D01*
X0272535Y0009336D01*
X0272352Y0009320D01*
X0272168Y0009309D01*
X0271984Y0009302D01*
X0271800Y0009300D01*
X0271616Y0009302D01*
X0271432Y0009309D01*
X0271248Y0009320D01*
X0271065Y0009336D01*
X0270882Y0009356D01*
X0270700Y0009381D01*
X0270518Y0009410D01*
X0270337Y0009444D01*
X0270157Y0009482D01*
X0269978Y0009525D01*
X0269800Y0009572D01*
X0269623Y0009623D01*
X0269447Y0009679D01*
X0269273Y0009738D01*
X0269101Y0009803D01*
X0268930Y0009871D01*
X0268761Y0009943D01*
X0268593Y0010020D01*
X0268428Y0010101D01*
X0268265Y0010186D01*
X0268103Y0010274D01*
X0267944Y0010367D01*
X0267788Y0010464D01*
X0267633Y0010564D01*
X0267481Y0010668D01*
X0267332Y0010776D01*
X0267186Y0010887D01*
X0267042Y0011002D01*
X0266901Y0011121D01*
X0266763Y0011243D01*
X0266628Y0011368D01*
X0266497Y0011497D01*
X0266368Y0011628D01*
X0266243Y0011763D01*
X0266121Y0011901D01*
X0266002Y0012042D01*
X0265887Y0012186D01*
X0265776Y0012332D01*
X0265668Y0012481D01*
X0265564Y0012633D01*
X0265464Y0012788D01*
X0265367Y0012944D01*
X0265274Y0013103D01*
X0265186Y0013265D01*
X0265101Y0013428D01*
X0265020Y0013593D01*
X0264943Y0013761D01*
X0264871Y0013930D01*
X0264803Y0014101D01*
X0264738Y0014273D01*
X0264679Y0014447D01*
X0264623Y0014623D01*
X0264572Y0014800D01*
X0264525Y0014978D01*
X0264482Y0015157D01*
X0264444Y0015337D01*
X0264410Y0015518D01*
X0264381Y0015700D01*
X0264356Y0015882D01*
X0264336Y0016065D01*
X0264320Y0016248D01*
X0264309Y0016432D01*
X0264302Y0016616D01*
X0264300Y0016800D01*
X0264300Y0186800D02*
X0264302Y0186984D01*
X0264309Y0187168D01*
X0264320Y0187352D01*
X0264336Y0187535D01*
X0264356Y0187718D01*
X0264381Y0187900D01*
X0264410Y0188082D01*
X0264444Y0188263D01*
X0264482Y0188443D01*
X0264525Y0188622D01*
X0264572Y0188800D01*
X0264623Y0188977D01*
X0264679Y0189153D01*
X0264738Y0189327D01*
X0264803Y0189499D01*
X0264871Y0189670D01*
X0264943Y0189839D01*
X0265020Y0190007D01*
X0265101Y0190172D01*
X0265186Y0190335D01*
X0265274Y0190497D01*
X0265367Y0190656D01*
X0265464Y0190812D01*
X0265564Y0190967D01*
X0265668Y0191119D01*
X0265776Y0191268D01*
X0265887Y0191414D01*
X0266002Y0191558D01*
X0266121Y0191699D01*
X0266243Y0191837D01*
X0266368Y0191972D01*
X0266497Y0192103D01*
X0266628Y0192232D01*
X0266763Y0192357D01*
X0266901Y0192479D01*
X0267042Y0192598D01*
X0267186Y0192713D01*
X0267332Y0192824D01*
X0267481Y0192932D01*
X0267633Y0193036D01*
X0267788Y0193136D01*
X0267944Y0193233D01*
X0268103Y0193326D01*
X0268265Y0193414D01*
X0268428Y0193499D01*
X0268593Y0193580D01*
X0268761Y0193657D01*
X0268930Y0193729D01*
X0269101Y0193797D01*
X0269273Y0193862D01*
X0269447Y0193921D01*
X0269623Y0193977D01*
X0269800Y0194028D01*
X0269978Y0194075D01*
X0270157Y0194118D01*
X0270337Y0194156D01*
X0270518Y0194190D01*
X0270700Y0194219D01*
X0270882Y0194244D01*
X0271065Y0194264D01*
X0271248Y0194280D01*
X0271432Y0194291D01*
X0271616Y0194298D01*
X0271800Y0194300D01*
X0271984Y0194298D01*
X0272168Y0194291D01*
X0272352Y0194280D01*
X0272535Y0194264D01*
X0272718Y0194244D01*
X0272900Y0194219D01*
X0273082Y0194190D01*
X0273263Y0194156D01*
X0273443Y0194118D01*
X0273622Y0194075D01*
X0273800Y0194028D01*
X0273977Y0193977D01*
X0274153Y0193921D01*
X0274327Y0193862D01*
X0274499Y0193797D01*
X0274670Y0193729D01*
X0274839Y0193657D01*
X0275007Y0193580D01*
X0275172Y0193499D01*
X0275335Y0193414D01*
X0275497Y0193326D01*
X0275656Y0193233D01*
X0275812Y0193136D01*
X0275967Y0193036D01*
X0276119Y0192932D01*
X0276268Y0192824D01*
X0276414Y0192713D01*
X0276558Y0192598D01*
X0276699Y0192479D01*
X0276837Y0192357D01*
X0276972Y0192232D01*
X0277103Y0192103D01*
X0277232Y0191972D01*
X0277357Y0191837D01*
X0277479Y0191699D01*
X0277598Y0191558D01*
X0277713Y0191414D01*
X0277824Y0191268D01*
X0277932Y0191119D01*
X0278036Y0190967D01*
X0278136Y0190812D01*
X0278233Y0190656D01*
X0278326Y0190497D01*
X0278414Y0190335D01*
X0278499Y0190172D01*
X0278580Y0190007D01*
X0278657Y0189839D01*
X0278729Y0189670D01*
X0278797Y0189499D01*
X0278862Y0189327D01*
X0278921Y0189153D01*
X0278977Y0188977D01*
X0279028Y0188800D01*
X0279075Y0188622D01*
X0279118Y0188443D01*
X0279156Y0188263D01*
X0279190Y0188082D01*
X0279219Y0187900D01*
X0279244Y0187718D01*
X0279264Y0187535D01*
X0279280Y0187352D01*
X0279291Y0187168D01*
X0279298Y0186984D01*
X0279300Y0186800D01*
X0279298Y0186616D01*
X0279291Y0186432D01*
X0279280Y0186248D01*
X0279264Y0186065D01*
X0279244Y0185882D01*
X0279219Y0185700D01*
X0279190Y0185518D01*
X0279156Y0185337D01*
X0279118Y0185157D01*
X0279075Y0184978D01*
X0279028Y0184800D01*
X0278977Y0184623D01*
X0278921Y0184447D01*
X0278862Y0184273D01*
X0278797Y0184101D01*
X0278729Y0183930D01*
X0278657Y0183761D01*
X0278580Y0183593D01*
X0278499Y0183428D01*
X0278414Y0183265D01*
X0278326Y0183103D01*
X0278233Y0182944D01*
X0278136Y0182788D01*
X0278036Y0182633D01*
X0277932Y0182481D01*
X0277824Y0182332D01*
X0277713Y0182186D01*
X0277598Y0182042D01*
X0277479Y0181901D01*
X0277357Y0181763D01*
X0277232Y0181628D01*
X0277103Y0181497D01*
X0276972Y0181368D01*
X0276837Y0181243D01*
X0276699Y0181121D01*
X0276558Y0181002D01*
X0276414Y0180887D01*
X0276268Y0180776D01*
X0276119Y0180668D01*
X0275967Y0180564D01*
X0275812Y0180464D01*
X0275656Y0180367D01*
X0275497Y0180274D01*
X0275335Y0180186D01*
X0275172Y0180101D01*
X0275007Y0180020D01*
X0274839Y0179943D01*
X0274670Y0179871D01*
X0274499Y0179803D01*
X0274327Y0179738D01*
X0274153Y0179679D01*
X0273977Y0179623D01*
X0273800Y0179572D01*
X0273622Y0179525D01*
X0273443Y0179482D01*
X0273263Y0179444D01*
X0273082Y0179410D01*
X0272900Y0179381D01*
X0272718Y0179356D01*
X0272535Y0179336D01*
X0272352Y0179320D01*
X0272168Y0179309D01*
X0271984Y0179302D01*
X0271800Y0179300D01*
X0271616Y0179302D01*
X0271432Y0179309D01*
X0271248Y0179320D01*
X0271065Y0179336D01*
X0270882Y0179356D01*
X0270700Y0179381D01*
X0270518Y0179410D01*
X0270337Y0179444D01*
X0270157Y0179482D01*
X0269978Y0179525D01*
X0269800Y0179572D01*
X0269623Y0179623D01*
X0269447Y0179679D01*
X0269273Y0179738D01*
X0269101Y0179803D01*
X0268930Y0179871D01*
X0268761Y0179943D01*
X0268593Y0180020D01*
X0268428Y0180101D01*
X0268265Y0180186D01*
X0268103Y0180274D01*
X0267944Y0180367D01*
X0267788Y0180464D01*
X0267633Y0180564D01*
X0267481Y0180668D01*
X0267332Y0180776D01*
X0267186Y0180887D01*
X0267042Y0181002D01*
X0266901Y0181121D01*
X0266763Y0181243D01*
X0266628Y0181368D01*
X0266497Y0181497D01*
X0266368Y0181628D01*
X0266243Y0181763D01*
X0266121Y0181901D01*
X0266002Y0182042D01*
X0265887Y0182186D01*
X0265776Y0182332D01*
X0265668Y0182481D01*
X0265564Y0182633D01*
X0265464Y0182788D01*
X0265367Y0182944D01*
X0265274Y0183103D01*
X0265186Y0183265D01*
X0265101Y0183428D01*
X0265020Y0183593D01*
X0264943Y0183761D01*
X0264871Y0183930D01*
X0264803Y0184101D01*
X0264738Y0184273D01*
X0264679Y0184447D01*
X0264623Y0184623D01*
X0264572Y0184800D01*
X0264525Y0184978D01*
X0264482Y0185157D01*
X0264444Y0185337D01*
X0264410Y0185518D01*
X0264381Y0185700D01*
X0264356Y0185882D01*
X0264336Y0186065D01*
X0264320Y0186248D01*
X0264309Y0186432D01*
X0264302Y0186616D01*
X0264300Y0186800D01*
D11*
X0271800Y0186800D03*
X0271800Y0016800D03*
X0016800Y0016800D03*
X0016800Y0186800D03*
D12*
X0266800Y0079300D03*
D13*
X0235816Y0059339D03*
X0235816Y0039339D03*
X0262383Y0049339D03*
X0047784Y0059261D03*
X0047784Y0039261D03*
X0021217Y0049261D03*
D14*
X0109938Y0113210D02*
X0110213Y0112925D01*
X0110545Y0112709D01*
X0110917Y0112572D01*
X0111310Y0112520D01*
X0111708Y0112575D01*
X0112084Y0112718D01*
X0112419Y0112940D01*
X0112696Y0113231D01*
X0112902Y0113577D01*
X0113025Y0113960D01*
X0113060Y0114360D01*
X0113008Y0114740D01*
X0112873Y0115098D01*
X0112662Y0115418D01*
X0112385Y0115682D01*
X0112056Y0115878D01*
X0111691Y0115996D01*
X0111310Y0116030D01*
X0110926Y0115990D01*
X0110560Y0115866D01*
X0110231Y0115663D01*
X0109956Y0115392D01*
X0109747Y0115067D01*
X0109617Y0114704D01*
X0109570Y0114320D01*
X0109608Y0113926D01*
X0109732Y0113549D01*
X0109938Y0113210D01*
X0109782Y0113467D02*
X0112836Y0113467D01*
X0113025Y0113965D02*
X0109604Y0113965D01*
X0109587Y0114464D02*
X0113046Y0114464D01*
X0112924Y0114962D02*
X0109709Y0114962D01*
X0110025Y0115461D02*
X0112617Y0115461D01*
X0111806Y0115959D02*
X0110834Y0115959D01*
X0110172Y0112968D02*
X0112446Y0112968D01*
X0120628Y0113926D02*
X0120590Y0114320D01*
X0120637Y0114704D01*
X0120767Y0115067D01*
X0120976Y0115392D01*
X0121251Y0115663D01*
X0121580Y0115866D01*
X0121946Y0115990D01*
X0122330Y0116030D01*
X0122711Y0115996D01*
X0123076Y0115878D01*
X0123405Y0115682D01*
X0123682Y0115418D01*
X0123893Y0115098D01*
X0124028Y0114740D01*
X0124080Y0114360D01*
X0124045Y0113960D01*
X0123922Y0113577D01*
X0123716Y0113231D01*
X0123439Y0112940D01*
X0123104Y0112718D01*
X0122728Y0112575D01*
X0122330Y0112520D01*
X0121937Y0112572D01*
X0121565Y0112709D01*
X0121233Y0112925D01*
X0120958Y0113210D01*
X0120752Y0113549D01*
X0120628Y0113926D01*
X0120624Y0113965D02*
X0124045Y0113965D01*
X0124066Y0114464D02*
X0120608Y0114464D01*
X0120730Y0114962D02*
X0123945Y0114962D01*
X0123637Y0115461D02*
X0121045Y0115461D01*
X0121854Y0115959D02*
X0122827Y0115959D01*
X0123856Y0113467D02*
X0120802Y0113467D01*
X0121192Y0112968D02*
X0123466Y0112968D01*
X0187575Y0130872D02*
X0187520Y0131270D01*
X0187572Y0131663D01*
X0187709Y0132035D01*
X0187925Y0132367D01*
X0188210Y0132642D01*
X0188549Y0132848D01*
X0188926Y0132972D01*
X0189320Y0133010D01*
X0189704Y0132963D01*
X0190067Y0132833D01*
X0190392Y0132624D01*
X0190663Y0132349D01*
X0190866Y0132020D01*
X0190990Y0131654D01*
X0191030Y0131270D01*
X0190996Y0130889D01*
X0190878Y0130524D01*
X0190682Y0130195D01*
X0190418Y0129918D01*
X0190098Y0129707D01*
X0189740Y0129572D01*
X0189360Y0129520D01*
X0188960Y0129555D01*
X0188577Y0129678D01*
X0188231Y0129884D01*
X0187940Y0130161D01*
X0187718Y0130496D01*
X0187575Y0130872D01*
X0187570Y0130914D02*
X0190999Y0130914D01*
X0191015Y0131413D02*
X0187539Y0131413D01*
X0187663Y0131911D02*
X0190903Y0131911D01*
X0190603Y0132410D02*
X0187970Y0132410D01*
X0188733Y0132908D02*
X0189856Y0132908D01*
X0190814Y0130416D02*
X0187771Y0130416D01*
X0188196Y0129917D02*
X0190417Y0129917D01*
X0189360Y0140540D02*
X0188960Y0140575D01*
X0188577Y0140698D01*
X0188231Y0140904D01*
X0187940Y0141181D01*
X0187718Y0141516D01*
X0187575Y0141892D01*
X0187520Y0142290D01*
X0187572Y0142683D01*
X0187709Y0143055D01*
X0187925Y0143387D01*
X0188210Y0143662D01*
X0188549Y0143868D01*
X0188926Y0143992D01*
X0189320Y0144030D01*
X0189704Y0143983D01*
X0190067Y0143853D01*
X0190392Y0143644D01*
X0190663Y0143369D01*
X0190866Y0143040D01*
X0190990Y0142674D01*
X0191030Y0142290D01*
X0190996Y0141909D01*
X0190878Y0141544D01*
X0190682Y0141215D01*
X0190418Y0140938D01*
X0190098Y0140727D01*
X0189740Y0140592D01*
X0189360Y0140540D01*
X0190337Y0140885D02*
X0188264Y0140885D01*
X0187806Y0141383D02*
X0190782Y0141383D01*
X0190988Y0141882D02*
X0187579Y0141882D01*
X0187532Y0142380D02*
X0191021Y0142380D01*
X0190921Y0142879D02*
X0187644Y0142879D01*
X0187919Y0143377D02*
X0190655Y0143377D01*
X0190003Y0143876D02*
X0188574Y0143876D01*
D15*
X0121800Y0096800D03*
X0111800Y0096800D03*
D16*
X0121800Y0134300D03*
D17*
X0111800Y0134300D03*
X0111800Y0144300D03*
X0121800Y0144300D03*
X0121800Y0154300D03*
X0111800Y0154300D03*
X0111800Y0164300D03*
X0121800Y0164300D03*
D18*
X0086800Y0116800D03*
X0056800Y0116800D03*
X0029300Y0116800D03*
X0029300Y0106800D03*
X0029300Y0096800D03*
X0201800Y0141800D03*
X0209300Y0131800D03*
X0231800Y0141800D03*
X0239300Y0131800D03*
D19*
X0224674Y0184300D03*
X0216800Y0184300D03*
X0209320Y0184300D03*
D20*
X0197902Y0184300D03*
X0235698Y0184300D03*
D21*
X0184300Y0184300D03*
X0174300Y0184300D03*
X0164300Y0184300D03*
X0154300Y0184300D03*
X0144300Y0184300D03*
X0134300Y0184300D03*
D22*
X0144300Y0169375D02*
X0144300Y0164225D01*
X0154300Y0164225D02*
X0154300Y0169375D01*
X0164300Y0169375D02*
X0164300Y0164225D01*
X0174300Y0164225D02*
X0174300Y0169375D01*
X0184300Y0169375D02*
X0184300Y0164225D01*
X0194300Y0164225D02*
X0194300Y0169375D01*
X0204300Y0169375D02*
X0204300Y0164225D01*
X0214300Y0164225D02*
X0214300Y0169375D01*
X0224300Y0169375D02*
X0224300Y0164225D01*
X0234300Y0164225D02*
X0234300Y0169375D01*
X0244300Y0169375D02*
X0244300Y0164225D01*
X0254300Y0164225D02*
X0254300Y0169375D01*
X0261725Y0161800D02*
X0266875Y0161800D01*
X0266875Y0151800D02*
X0261725Y0151800D01*
X0261725Y0141800D02*
X0266875Y0141800D01*
X0266875Y0131800D02*
X0261725Y0131800D01*
X0261725Y0121800D02*
X0266875Y0121800D01*
X0266875Y0111800D02*
X0261725Y0111800D01*
X0254300Y0109375D02*
X0254300Y0104225D01*
X0244300Y0104225D02*
X0244300Y0109375D01*
X0234300Y0109375D02*
X0234300Y0104225D01*
X0224300Y0104225D02*
X0224300Y0109375D01*
X0214300Y0109375D02*
X0214300Y0104225D01*
X0204300Y0104225D02*
X0204300Y0109375D01*
X0194300Y0109375D02*
X0194300Y0104225D01*
X0184300Y0104225D02*
X0184300Y0109375D01*
X0174300Y0109375D02*
X0174300Y0104225D01*
X0164300Y0104225D02*
X0164300Y0109375D01*
X0154300Y0109375D02*
X0154300Y0104225D01*
X0144300Y0104225D02*
X0144300Y0109375D01*
X0146875Y0121800D02*
X0141725Y0121800D01*
X0141725Y0131800D02*
X0146875Y0131800D01*
X0146875Y0141800D02*
X0141725Y0141800D01*
D23*
X0209300Y0121800D03*
X0219300Y0121800D03*
D24*
X0266800Y0079300D03*
X0266800Y0079300D03*
M02*
