G75*
%MOIN*%
%OFA0B0*%
%FSLAX25Y25*%
%IPPOS*%
%LPD*%
%AMOC8*
5,1,8,0,0,1.08239X$1,22.5*
%
%ADD10C,0.00000*%
%ADD11C,0.10800*%
%ADD12C,0.08000*%
%ADD13R,0.06500X0.06500*%
%ADD14C,0.06500*%
%ADD15R,0.05937X0.05937*%
%ADD16C,0.05937*%
%ADD17C,0.07400*%
%ADD18C,0.05600*%
%ADD19C,0.10000*%
%ADD20OC8,0.06000*%
%ADD21C,0.05150*%
%ADD22C,0.05150*%
%ADD23C,0.01600*%
%ADD24C,0.01200*%
%ADD25C,0.03962*%
D10*
X0001800Y0001800D02*
X0001800Y0201800D01*
X0281800Y0201800D01*
X0281800Y0001800D01*
X0001800Y0001800D01*
X0009300Y0016800D02*
X0009302Y0016984D01*
X0009309Y0017168D01*
X0009320Y0017352D01*
X0009336Y0017535D01*
X0009356Y0017718D01*
X0009381Y0017900D01*
X0009410Y0018082D01*
X0009444Y0018263D01*
X0009482Y0018443D01*
X0009525Y0018622D01*
X0009572Y0018800D01*
X0009623Y0018977D01*
X0009679Y0019153D01*
X0009738Y0019327D01*
X0009803Y0019499D01*
X0009871Y0019670D01*
X0009943Y0019839D01*
X0010020Y0020007D01*
X0010101Y0020172D01*
X0010186Y0020335D01*
X0010274Y0020497D01*
X0010367Y0020656D01*
X0010464Y0020812D01*
X0010564Y0020967D01*
X0010668Y0021119D01*
X0010776Y0021268D01*
X0010887Y0021414D01*
X0011002Y0021558D01*
X0011121Y0021699D01*
X0011243Y0021837D01*
X0011368Y0021972D01*
X0011497Y0022103D01*
X0011628Y0022232D01*
X0011763Y0022357D01*
X0011901Y0022479D01*
X0012042Y0022598D01*
X0012186Y0022713D01*
X0012332Y0022824D01*
X0012481Y0022932D01*
X0012633Y0023036D01*
X0012788Y0023136D01*
X0012944Y0023233D01*
X0013103Y0023326D01*
X0013265Y0023414D01*
X0013428Y0023499D01*
X0013593Y0023580D01*
X0013761Y0023657D01*
X0013930Y0023729D01*
X0014101Y0023797D01*
X0014273Y0023862D01*
X0014447Y0023921D01*
X0014623Y0023977D01*
X0014800Y0024028D01*
X0014978Y0024075D01*
X0015157Y0024118D01*
X0015337Y0024156D01*
X0015518Y0024190D01*
X0015700Y0024219D01*
X0015882Y0024244D01*
X0016065Y0024264D01*
X0016248Y0024280D01*
X0016432Y0024291D01*
X0016616Y0024298D01*
X0016800Y0024300D01*
X0016984Y0024298D01*
X0017168Y0024291D01*
X0017352Y0024280D01*
X0017535Y0024264D01*
X0017718Y0024244D01*
X0017900Y0024219D01*
X0018082Y0024190D01*
X0018263Y0024156D01*
X0018443Y0024118D01*
X0018622Y0024075D01*
X0018800Y0024028D01*
X0018977Y0023977D01*
X0019153Y0023921D01*
X0019327Y0023862D01*
X0019499Y0023797D01*
X0019670Y0023729D01*
X0019839Y0023657D01*
X0020007Y0023580D01*
X0020172Y0023499D01*
X0020335Y0023414D01*
X0020497Y0023326D01*
X0020656Y0023233D01*
X0020812Y0023136D01*
X0020967Y0023036D01*
X0021119Y0022932D01*
X0021268Y0022824D01*
X0021414Y0022713D01*
X0021558Y0022598D01*
X0021699Y0022479D01*
X0021837Y0022357D01*
X0021972Y0022232D01*
X0022103Y0022103D01*
X0022232Y0021972D01*
X0022357Y0021837D01*
X0022479Y0021699D01*
X0022598Y0021558D01*
X0022713Y0021414D01*
X0022824Y0021268D01*
X0022932Y0021119D01*
X0023036Y0020967D01*
X0023136Y0020812D01*
X0023233Y0020656D01*
X0023326Y0020497D01*
X0023414Y0020335D01*
X0023499Y0020172D01*
X0023580Y0020007D01*
X0023657Y0019839D01*
X0023729Y0019670D01*
X0023797Y0019499D01*
X0023862Y0019327D01*
X0023921Y0019153D01*
X0023977Y0018977D01*
X0024028Y0018800D01*
X0024075Y0018622D01*
X0024118Y0018443D01*
X0024156Y0018263D01*
X0024190Y0018082D01*
X0024219Y0017900D01*
X0024244Y0017718D01*
X0024264Y0017535D01*
X0024280Y0017352D01*
X0024291Y0017168D01*
X0024298Y0016984D01*
X0024300Y0016800D01*
X0024298Y0016616D01*
X0024291Y0016432D01*
X0024280Y0016248D01*
X0024264Y0016065D01*
X0024244Y0015882D01*
X0024219Y0015700D01*
X0024190Y0015518D01*
X0024156Y0015337D01*
X0024118Y0015157D01*
X0024075Y0014978D01*
X0024028Y0014800D01*
X0023977Y0014623D01*
X0023921Y0014447D01*
X0023862Y0014273D01*
X0023797Y0014101D01*
X0023729Y0013930D01*
X0023657Y0013761D01*
X0023580Y0013593D01*
X0023499Y0013428D01*
X0023414Y0013265D01*
X0023326Y0013103D01*
X0023233Y0012944D01*
X0023136Y0012788D01*
X0023036Y0012633D01*
X0022932Y0012481D01*
X0022824Y0012332D01*
X0022713Y0012186D01*
X0022598Y0012042D01*
X0022479Y0011901D01*
X0022357Y0011763D01*
X0022232Y0011628D01*
X0022103Y0011497D01*
X0021972Y0011368D01*
X0021837Y0011243D01*
X0021699Y0011121D01*
X0021558Y0011002D01*
X0021414Y0010887D01*
X0021268Y0010776D01*
X0021119Y0010668D01*
X0020967Y0010564D01*
X0020812Y0010464D01*
X0020656Y0010367D01*
X0020497Y0010274D01*
X0020335Y0010186D01*
X0020172Y0010101D01*
X0020007Y0010020D01*
X0019839Y0009943D01*
X0019670Y0009871D01*
X0019499Y0009803D01*
X0019327Y0009738D01*
X0019153Y0009679D01*
X0018977Y0009623D01*
X0018800Y0009572D01*
X0018622Y0009525D01*
X0018443Y0009482D01*
X0018263Y0009444D01*
X0018082Y0009410D01*
X0017900Y0009381D01*
X0017718Y0009356D01*
X0017535Y0009336D01*
X0017352Y0009320D01*
X0017168Y0009309D01*
X0016984Y0009302D01*
X0016800Y0009300D01*
X0016616Y0009302D01*
X0016432Y0009309D01*
X0016248Y0009320D01*
X0016065Y0009336D01*
X0015882Y0009356D01*
X0015700Y0009381D01*
X0015518Y0009410D01*
X0015337Y0009444D01*
X0015157Y0009482D01*
X0014978Y0009525D01*
X0014800Y0009572D01*
X0014623Y0009623D01*
X0014447Y0009679D01*
X0014273Y0009738D01*
X0014101Y0009803D01*
X0013930Y0009871D01*
X0013761Y0009943D01*
X0013593Y0010020D01*
X0013428Y0010101D01*
X0013265Y0010186D01*
X0013103Y0010274D01*
X0012944Y0010367D01*
X0012788Y0010464D01*
X0012633Y0010564D01*
X0012481Y0010668D01*
X0012332Y0010776D01*
X0012186Y0010887D01*
X0012042Y0011002D01*
X0011901Y0011121D01*
X0011763Y0011243D01*
X0011628Y0011368D01*
X0011497Y0011497D01*
X0011368Y0011628D01*
X0011243Y0011763D01*
X0011121Y0011901D01*
X0011002Y0012042D01*
X0010887Y0012186D01*
X0010776Y0012332D01*
X0010668Y0012481D01*
X0010564Y0012633D01*
X0010464Y0012788D01*
X0010367Y0012944D01*
X0010274Y0013103D01*
X0010186Y0013265D01*
X0010101Y0013428D01*
X0010020Y0013593D01*
X0009943Y0013761D01*
X0009871Y0013930D01*
X0009803Y0014101D01*
X0009738Y0014273D01*
X0009679Y0014447D01*
X0009623Y0014623D01*
X0009572Y0014800D01*
X0009525Y0014978D01*
X0009482Y0015157D01*
X0009444Y0015337D01*
X0009410Y0015518D01*
X0009381Y0015700D01*
X0009356Y0015882D01*
X0009336Y0016065D01*
X0009320Y0016248D01*
X0009309Y0016432D01*
X0009302Y0016616D01*
X0009300Y0016800D01*
X0009300Y0186800D02*
X0009302Y0186984D01*
X0009309Y0187168D01*
X0009320Y0187352D01*
X0009336Y0187535D01*
X0009356Y0187718D01*
X0009381Y0187900D01*
X0009410Y0188082D01*
X0009444Y0188263D01*
X0009482Y0188443D01*
X0009525Y0188622D01*
X0009572Y0188800D01*
X0009623Y0188977D01*
X0009679Y0189153D01*
X0009738Y0189327D01*
X0009803Y0189499D01*
X0009871Y0189670D01*
X0009943Y0189839D01*
X0010020Y0190007D01*
X0010101Y0190172D01*
X0010186Y0190335D01*
X0010274Y0190497D01*
X0010367Y0190656D01*
X0010464Y0190812D01*
X0010564Y0190967D01*
X0010668Y0191119D01*
X0010776Y0191268D01*
X0010887Y0191414D01*
X0011002Y0191558D01*
X0011121Y0191699D01*
X0011243Y0191837D01*
X0011368Y0191972D01*
X0011497Y0192103D01*
X0011628Y0192232D01*
X0011763Y0192357D01*
X0011901Y0192479D01*
X0012042Y0192598D01*
X0012186Y0192713D01*
X0012332Y0192824D01*
X0012481Y0192932D01*
X0012633Y0193036D01*
X0012788Y0193136D01*
X0012944Y0193233D01*
X0013103Y0193326D01*
X0013265Y0193414D01*
X0013428Y0193499D01*
X0013593Y0193580D01*
X0013761Y0193657D01*
X0013930Y0193729D01*
X0014101Y0193797D01*
X0014273Y0193862D01*
X0014447Y0193921D01*
X0014623Y0193977D01*
X0014800Y0194028D01*
X0014978Y0194075D01*
X0015157Y0194118D01*
X0015337Y0194156D01*
X0015518Y0194190D01*
X0015700Y0194219D01*
X0015882Y0194244D01*
X0016065Y0194264D01*
X0016248Y0194280D01*
X0016432Y0194291D01*
X0016616Y0194298D01*
X0016800Y0194300D01*
X0016984Y0194298D01*
X0017168Y0194291D01*
X0017352Y0194280D01*
X0017535Y0194264D01*
X0017718Y0194244D01*
X0017900Y0194219D01*
X0018082Y0194190D01*
X0018263Y0194156D01*
X0018443Y0194118D01*
X0018622Y0194075D01*
X0018800Y0194028D01*
X0018977Y0193977D01*
X0019153Y0193921D01*
X0019327Y0193862D01*
X0019499Y0193797D01*
X0019670Y0193729D01*
X0019839Y0193657D01*
X0020007Y0193580D01*
X0020172Y0193499D01*
X0020335Y0193414D01*
X0020497Y0193326D01*
X0020656Y0193233D01*
X0020812Y0193136D01*
X0020967Y0193036D01*
X0021119Y0192932D01*
X0021268Y0192824D01*
X0021414Y0192713D01*
X0021558Y0192598D01*
X0021699Y0192479D01*
X0021837Y0192357D01*
X0021972Y0192232D01*
X0022103Y0192103D01*
X0022232Y0191972D01*
X0022357Y0191837D01*
X0022479Y0191699D01*
X0022598Y0191558D01*
X0022713Y0191414D01*
X0022824Y0191268D01*
X0022932Y0191119D01*
X0023036Y0190967D01*
X0023136Y0190812D01*
X0023233Y0190656D01*
X0023326Y0190497D01*
X0023414Y0190335D01*
X0023499Y0190172D01*
X0023580Y0190007D01*
X0023657Y0189839D01*
X0023729Y0189670D01*
X0023797Y0189499D01*
X0023862Y0189327D01*
X0023921Y0189153D01*
X0023977Y0188977D01*
X0024028Y0188800D01*
X0024075Y0188622D01*
X0024118Y0188443D01*
X0024156Y0188263D01*
X0024190Y0188082D01*
X0024219Y0187900D01*
X0024244Y0187718D01*
X0024264Y0187535D01*
X0024280Y0187352D01*
X0024291Y0187168D01*
X0024298Y0186984D01*
X0024300Y0186800D01*
X0024298Y0186616D01*
X0024291Y0186432D01*
X0024280Y0186248D01*
X0024264Y0186065D01*
X0024244Y0185882D01*
X0024219Y0185700D01*
X0024190Y0185518D01*
X0024156Y0185337D01*
X0024118Y0185157D01*
X0024075Y0184978D01*
X0024028Y0184800D01*
X0023977Y0184623D01*
X0023921Y0184447D01*
X0023862Y0184273D01*
X0023797Y0184101D01*
X0023729Y0183930D01*
X0023657Y0183761D01*
X0023580Y0183593D01*
X0023499Y0183428D01*
X0023414Y0183265D01*
X0023326Y0183103D01*
X0023233Y0182944D01*
X0023136Y0182788D01*
X0023036Y0182633D01*
X0022932Y0182481D01*
X0022824Y0182332D01*
X0022713Y0182186D01*
X0022598Y0182042D01*
X0022479Y0181901D01*
X0022357Y0181763D01*
X0022232Y0181628D01*
X0022103Y0181497D01*
X0021972Y0181368D01*
X0021837Y0181243D01*
X0021699Y0181121D01*
X0021558Y0181002D01*
X0021414Y0180887D01*
X0021268Y0180776D01*
X0021119Y0180668D01*
X0020967Y0180564D01*
X0020812Y0180464D01*
X0020656Y0180367D01*
X0020497Y0180274D01*
X0020335Y0180186D01*
X0020172Y0180101D01*
X0020007Y0180020D01*
X0019839Y0179943D01*
X0019670Y0179871D01*
X0019499Y0179803D01*
X0019327Y0179738D01*
X0019153Y0179679D01*
X0018977Y0179623D01*
X0018800Y0179572D01*
X0018622Y0179525D01*
X0018443Y0179482D01*
X0018263Y0179444D01*
X0018082Y0179410D01*
X0017900Y0179381D01*
X0017718Y0179356D01*
X0017535Y0179336D01*
X0017352Y0179320D01*
X0017168Y0179309D01*
X0016984Y0179302D01*
X0016800Y0179300D01*
X0016616Y0179302D01*
X0016432Y0179309D01*
X0016248Y0179320D01*
X0016065Y0179336D01*
X0015882Y0179356D01*
X0015700Y0179381D01*
X0015518Y0179410D01*
X0015337Y0179444D01*
X0015157Y0179482D01*
X0014978Y0179525D01*
X0014800Y0179572D01*
X0014623Y0179623D01*
X0014447Y0179679D01*
X0014273Y0179738D01*
X0014101Y0179803D01*
X0013930Y0179871D01*
X0013761Y0179943D01*
X0013593Y0180020D01*
X0013428Y0180101D01*
X0013265Y0180186D01*
X0013103Y0180274D01*
X0012944Y0180367D01*
X0012788Y0180464D01*
X0012633Y0180564D01*
X0012481Y0180668D01*
X0012332Y0180776D01*
X0012186Y0180887D01*
X0012042Y0181002D01*
X0011901Y0181121D01*
X0011763Y0181243D01*
X0011628Y0181368D01*
X0011497Y0181497D01*
X0011368Y0181628D01*
X0011243Y0181763D01*
X0011121Y0181901D01*
X0011002Y0182042D01*
X0010887Y0182186D01*
X0010776Y0182332D01*
X0010668Y0182481D01*
X0010564Y0182633D01*
X0010464Y0182788D01*
X0010367Y0182944D01*
X0010274Y0183103D01*
X0010186Y0183265D01*
X0010101Y0183428D01*
X0010020Y0183593D01*
X0009943Y0183761D01*
X0009871Y0183930D01*
X0009803Y0184101D01*
X0009738Y0184273D01*
X0009679Y0184447D01*
X0009623Y0184623D01*
X0009572Y0184800D01*
X0009525Y0184978D01*
X0009482Y0185157D01*
X0009444Y0185337D01*
X0009410Y0185518D01*
X0009381Y0185700D01*
X0009356Y0185882D01*
X0009336Y0186065D01*
X0009320Y0186248D01*
X0009309Y0186432D01*
X0009302Y0186616D01*
X0009300Y0186800D01*
X0265619Y0079300D02*
X0265621Y0079369D01*
X0265627Y0079437D01*
X0265637Y0079505D01*
X0265651Y0079572D01*
X0265669Y0079639D01*
X0265690Y0079704D01*
X0265716Y0079768D01*
X0265745Y0079830D01*
X0265777Y0079890D01*
X0265813Y0079949D01*
X0265853Y0080005D01*
X0265895Y0080059D01*
X0265941Y0080110D01*
X0265990Y0080159D01*
X0266041Y0080205D01*
X0266095Y0080247D01*
X0266151Y0080287D01*
X0266209Y0080323D01*
X0266270Y0080355D01*
X0266332Y0080384D01*
X0266396Y0080410D01*
X0266461Y0080431D01*
X0266528Y0080449D01*
X0266595Y0080463D01*
X0266663Y0080473D01*
X0266731Y0080479D01*
X0266800Y0080481D01*
X0266869Y0080479D01*
X0266937Y0080473D01*
X0267005Y0080463D01*
X0267072Y0080449D01*
X0267139Y0080431D01*
X0267204Y0080410D01*
X0267268Y0080384D01*
X0267330Y0080355D01*
X0267390Y0080323D01*
X0267449Y0080287D01*
X0267505Y0080247D01*
X0267559Y0080205D01*
X0267610Y0080159D01*
X0267659Y0080110D01*
X0267705Y0080059D01*
X0267747Y0080005D01*
X0267787Y0079949D01*
X0267823Y0079890D01*
X0267855Y0079830D01*
X0267884Y0079768D01*
X0267910Y0079704D01*
X0267931Y0079639D01*
X0267949Y0079572D01*
X0267963Y0079505D01*
X0267973Y0079437D01*
X0267979Y0079369D01*
X0267981Y0079300D01*
X0267979Y0079231D01*
X0267973Y0079163D01*
X0267963Y0079095D01*
X0267949Y0079028D01*
X0267931Y0078961D01*
X0267910Y0078896D01*
X0267884Y0078832D01*
X0267855Y0078770D01*
X0267823Y0078709D01*
X0267787Y0078651D01*
X0267747Y0078595D01*
X0267705Y0078541D01*
X0267659Y0078490D01*
X0267610Y0078441D01*
X0267559Y0078395D01*
X0267505Y0078353D01*
X0267449Y0078313D01*
X0267391Y0078277D01*
X0267330Y0078245D01*
X0267268Y0078216D01*
X0267204Y0078190D01*
X0267139Y0078169D01*
X0267072Y0078151D01*
X0267005Y0078137D01*
X0266937Y0078127D01*
X0266869Y0078121D01*
X0266800Y0078119D01*
X0266731Y0078121D01*
X0266663Y0078127D01*
X0266595Y0078137D01*
X0266528Y0078151D01*
X0266461Y0078169D01*
X0266396Y0078190D01*
X0266332Y0078216D01*
X0266270Y0078245D01*
X0266209Y0078277D01*
X0266151Y0078313D01*
X0266095Y0078353D01*
X0266041Y0078395D01*
X0265990Y0078441D01*
X0265941Y0078490D01*
X0265895Y0078541D01*
X0265853Y0078595D01*
X0265813Y0078651D01*
X0265777Y0078709D01*
X0265745Y0078770D01*
X0265716Y0078832D01*
X0265690Y0078896D01*
X0265669Y0078961D01*
X0265651Y0079028D01*
X0265637Y0079095D01*
X0265627Y0079163D01*
X0265621Y0079231D01*
X0265619Y0079300D01*
X0264300Y0016800D02*
X0264302Y0016984D01*
X0264309Y0017168D01*
X0264320Y0017352D01*
X0264336Y0017535D01*
X0264356Y0017718D01*
X0264381Y0017900D01*
X0264410Y0018082D01*
X0264444Y0018263D01*
X0264482Y0018443D01*
X0264525Y0018622D01*
X0264572Y0018800D01*
X0264623Y0018977D01*
X0264679Y0019153D01*
X0264738Y0019327D01*
X0264803Y0019499D01*
X0264871Y0019670D01*
X0264943Y0019839D01*
X0265020Y0020007D01*
X0265101Y0020172D01*
X0265186Y0020335D01*
X0265274Y0020497D01*
X0265367Y0020656D01*
X0265464Y0020812D01*
X0265564Y0020967D01*
X0265668Y0021119D01*
X0265776Y0021268D01*
X0265887Y0021414D01*
X0266002Y0021558D01*
X0266121Y0021699D01*
X0266243Y0021837D01*
X0266368Y0021972D01*
X0266497Y0022103D01*
X0266628Y0022232D01*
X0266763Y0022357D01*
X0266901Y0022479D01*
X0267042Y0022598D01*
X0267186Y0022713D01*
X0267332Y0022824D01*
X0267481Y0022932D01*
X0267633Y0023036D01*
X0267788Y0023136D01*
X0267944Y0023233D01*
X0268103Y0023326D01*
X0268265Y0023414D01*
X0268428Y0023499D01*
X0268593Y0023580D01*
X0268761Y0023657D01*
X0268930Y0023729D01*
X0269101Y0023797D01*
X0269273Y0023862D01*
X0269447Y0023921D01*
X0269623Y0023977D01*
X0269800Y0024028D01*
X0269978Y0024075D01*
X0270157Y0024118D01*
X0270337Y0024156D01*
X0270518Y0024190D01*
X0270700Y0024219D01*
X0270882Y0024244D01*
X0271065Y0024264D01*
X0271248Y0024280D01*
X0271432Y0024291D01*
X0271616Y0024298D01*
X0271800Y0024300D01*
X0271984Y0024298D01*
X0272168Y0024291D01*
X0272352Y0024280D01*
X0272535Y0024264D01*
X0272718Y0024244D01*
X0272900Y0024219D01*
X0273082Y0024190D01*
X0273263Y0024156D01*
X0273443Y0024118D01*
X0273622Y0024075D01*
X0273800Y0024028D01*
X0273977Y0023977D01*
X0274153Y0023921D01*
X0274327Y0023862D01*
X0274499Y0023797D01*
X0274670Y0023729D01*
X0274839Y0023657D01*
X0275007Y0023580D01*
X0275172Y0023499D01*
X0275335Y0023414D01*
X0275497Y0023326D01*
X0275656Y0023233D01*
X0275812Y0023136D01*
X0275967Y0023036D01*
X0276119Y0022932D01*
X0276268Y0022824D01*
X0276414Y0022713D01*
X0276558Y0022598D01*
X0276699Y0022479D01*
X0276837Y0022357D01*
X0276972Y0022232D01*
X0277103Y0022103D01*
X0277232Y0021972D01*
X0277357Y0021837D01*
X0277479Y0021699D01*
X0277598Y0021558D01*
X0277713Y0021414D01*
X0277824Y0021268D01*
X0277932Y0021119D01*
X0278036Y0020967D01*
X0278136Y0020812D01*
X0278233Y0020656D01*
X0278326Y0020497D01*
X0278414Y0020335D01*
X0278499Y0020172D01*
X0278580Y0020007D01*
X0278657Y0019839D01*
X0278729Y0019670D01*
X0278797Y0019499D01*
X0278862Y0019327D01*
X0278921Y0019153D01*
X0278977Y0018977D01*
X0279028Y0018800D01*
X0279075Y0018622D01*
X0279118Y0018443D01*
X0279156Y0018263D01*
X0279190Y0018082D01*
X0279219Y0017900D01*
X0279244Y0017718D01*
X0279264Y0017535D01*
X0279280Y0017352D01*
X0279291Y0017168D01*
X0279298Y0016984D01*
X0279300Y0016800D01*
X0279298Y0016616D01*
X0279291Y0016432D01*
X0279280Y0016248D01*
X0279264Y0016065D01*
X0279244Y0015882D01*
X0279219Y0015700D01*
X0279190Y0015518D01*
X0279156Y0015337D01*
X0279118Y0015157D01*
X0279075Y0014978D01*
X0279028Y0014800D01*
X0278977Y0014623D01*
X0278921Y0014447D01*
X0278862Y0014273D01*
X0278797Y0014101D01*
X0278729Y0013930D01*
X0278657Y0013761D01*
X0278580Y0013593D01*
X0278499Y0013428D01*
X0278414Y0013265D01*
X0278326Y0013103D01*
X0278233Y0012944D01*
X0278136Y0012788D01*
X0278036Y0012633D01*
X0277932Y0012481D01*
X0277824Y0012332D01*
X0277713Y0012186D01*
X0277598Y0012042D01*
X0277479Y0011901D01*
X0277357Y0011763D01*
X0277232Y0011628D01*
X0277103Y0011497D01*
X0276972Y0011368D01*
X0276837Y0011243D01*
X0276699Y0011121D01*
X0276558Y0011002D01*
X0276414Y0010887D01*
X0276268Y0010776D01*
X0276119Y0010668D01*
X0275967Y0010564D01*
X0275812Y0010464D01*
X0275656Y0010367D01*
X0275497Y0010274D01*
X0275335Y0010186D01*
X0275172Y0010101D01*
X0275007Y0010020D01*
X0274839Y0009943D01*
X0274670Y0009871D01*
X0274499Y0009803D01*
X0274327Y0009738D01*
X0274153Y0009679D01*
X0273977Y0009623D01*
X0273800Y0009572D01*
X0273622Y0009525D01*
X0273443Y0009482D01*
X0273263Y0009444D01*
X0273082Y0009410D01*
X0272900Y0009381D01*
X0272718Y0009356D01*
X0272535Y0009336D01*
X0272352Y0009320D01*
X0272168Y0009309D01*
X0271984Y0009302D01*
X0271800Y0009300D01*
X0271616Y0009302D01*
X0271432Y0009309D01*
X0271248Y0009320D01*
X0271065Y0009336D01*
X0270882Y0009356D01*
X0270700Y0009381D01*
X0270518Y0009410D01*
X0270337Y0009444D01*
X0270157Y0009482D01*
X0269978Y0009525D01*
X0269800Y0009572D01*
X0269623Y0009623D01*
X0269447Y0009679D01*
X0269273Y0009738D01*
X0269101Y0009803D01*
X0268930Y0009871D01*
X0268761Y0009943D01*
X0268593Y0010020D01*
X0268428Y0010101D01*
X0268265Y0010186D01*
X0268103Y0010274D01*
X0267944Y0010367D01*
X0267788Y0010464D01*
X0267633Y0010564D01*
X0267481Y0010668D01*
X0267332Y0010776D01*
X0267186Y0010887D01*
X0267042Y0011002D01*
X0266901Y0011121D01*
X0266763Y0011243D01*
X0266628Y0011368D01*
X0266497Y0011497D01*
X0266368Y0011628D01*
X0266243Y0011763D01*
X0266121Y0011901D01*
X0266002Y0012042D01*
X0265887Y0012186D01*
X0265776Y0012332D01*
X0265668Y0012481D01*
X0265564Y0012633D01*
X0265464Y0012788D01*
X0265367Y0012944D01*
X0265274Y0013103D01*
X0265186Y0013265D01*
X0265101Y0013428D01*
X0265020Y0013593D01*
X0264943Y0013761D01*
X0264871Y0013930D01*
X0264803Y0014101D01*
X0264738Y0014273D01*
X0264679Y0014447D01*
X0264623Y0014623D01*
X0264572Y0014800D01*
X0264525Y0014978D01*
X0264482Y0015157D01*
X0264444Y0015337D01*
X0264410Y0015518D01*
X0264381Y0015700D01*
X0264356Y0015882D01*
X0264336Y0016065D01*
X0264320Y0016248D01*
X0264309Y0016432D01*
X0264302Y0016616D01*
X0264300Y0016800D01*
X0264300Y0186800D02*
X0264302Y0186984D01*
X0264309Y0187168D01*
X0264320Y0187352D01*
X0264336Y0187535D01*
X0264356Y0187718D01*
X0264381Y0187900D01*
X0264410Y0188082D01*
X0264444Y0188263D01*
X0264482Y0188443D01*
X0264525Y0188622D01*
X0264572Y0188800D01*
X0264623Y0188977D01*
X0264679Y0189153D01*
X0264738Y0189327D01*
X0264803Y0189499D01*
X0264871Y0189670D01*
X0264943Y0189839D01*
X0265020Y0190007D01*
X0265101Y0190172D01*
X0265186Y0190335D01*
X0265274Y0190497D01*
X0265367Y0190656D01*
X0265464Y0190812D01*
X0265564Y0190967D01*
X0265668Y0191119D01*
X0265776Y0191268D01*
X0265887Y0191414D01*
X0266002Y0191558D01*
X0266121Y0191699D01*
X0266243Y0191837D01*
X0266368Y0191972D01*
X0266497Y0192103D01*
X0266628Y0192232D01*
X0266763Y0192357D01*
X0266901Y0192479D01*
X0267042Y0192598D01*
X0267186Y0192713D01*
X0267332Y0192824D01*
X0267481Y0192932D01*
X0267633Y0193036D01*
X0267788Y0193136D01*
X0267944Y0193233D01*
X0268103Y0193326D01*
X0268265Y0193414D01*
X0268428Y0193499D01*
X0268593Y0193580D01*
X0268761Y0193657D01*
X0268930Y0193729D01*
X0269101Y0193797D01*
X0269273Y0193862D01*
X0269447Y0193921D01*
X0269623Y0193977D01*
X0269800Y0194028D01*
X0269978Y0194075D01*
X0270157Y0194118D01*
X0270337Y0194156D01*
X0270518Y0194190D01*
X0270700Y0194219D01*
X0270882Y0194244D01*
X0271065Y0194264D01*
X0271248Y0194280D01*
X0271432Y0194291D01*
X0271616Y0194298D01*
X0271800Y0194300D01*
X0271984Y0194298D01*
X0272168Y0194291D01*
X0272352Y0194280D01*
X0272535Y0194264D01*
X0272718Y0194244D01*
X0272900Y0194219D01*
X0273082Y0194190D01*
X0273263Y0194156D01*
X0273443Y0194118D01*
X0273622Y0194075D01*
X0273800Y0194028D01*
X0273977Y0193977D01*
X0274153Y0193921D01*
X0274327Y0193862D01*
X0274499Y0193797D01*
X0274670Y0193729D01*
X0274839Y0193657D01*
X0275007Y0193580D01*
X0275172Y0193499D01*
X0275335Y0193414D01*
X0275497Y0193326D01*
X0275656Y0193233D01*
X0275812Y0193136D01*
X0275967Y0193036D01*
X0276119Y0192932D01*
X0276268Y0192824D01*
X0276414Y0192713D01*
X0276558Y0192598D01*
X0276699Y0192479D01*
X0276837Y0192357D01*
X0276972Y0192232D01*
X0277103Y0192103D01*
X0277232Y0191972D01*
X0277357Y0191837D01*
X0277479Y0191699D01*
X0277598Y0191558D01*
X0277713Y0191414D01*
X0277824Y0191268D01*
X0277932Y0191119D01*
X0278036Y0190967D01*
X0278136Y0190812D01*
X0278233Y0190656D01*
X0278326Y0190497D01*
X0278414Y0190335D01*
X0278499Y0190172D01*
X0278580Y0190007D01*
X0278657Y0189839D01*
X0278729Y0189670D01*
X0278797Y0189499D01*
X0278862Y0189327D01*
X0278921Y0189153D01*
X0278977Y0188977D01*
X0279028Y0188800D01*
X0279075Y0188622D01*
X0279118Y0188443D01*
X0279156Y0188263D01*
X0279190Y0188082D01*
X0279219Y0187900D01*
X0279244Y0187718D01*
X0279264Y0187535D01*
X0279280Y0187352D01*
X0279291Y0187168D01*
X0279298Y0186984D01*
X0279300Y0186800D01*
X0279298Y0186616D01*
X0279291Y0186432D01*
X0279280Y0186248D01*
X0279264Y0186065D01*
X0279244Y0185882D01*
X0279219Y0185700D01*
X0279190Y0185518D01*
X0279156Y0185337D01*
X0279118Y0185157D01*
X0279075Y0184978D01*
X0279028Y0184800D01*
X0278977Y0184623D01*
X0278921Y0184447D01*
X0278862Y0184273D01*
X0278797Y0184101D01*
X0278729Y0183930D01*
X0278657Y0183761D01*
X0278580Y0183593D01*
X0278499Y0183428D01*
X0278414Y0183265D01*
X0278326Y0183103D01*
X0278233Y0182944D01*
X0278136Y0182788D01*
X0278036Y0182633D01*
X0277932Y0182481D01*
X0277824Y0182332D01*
X0277713Y0182186D01*
X0277598Y0182042D01*
X0277479Y0181901D01*
X0277357Y0181763D01*
X0277232Y0181628D01*
X0277103Y0181497D01*
X0276972Y0181368D01*
X0276837Y0181243D01*
X0276699Y0181121D01*
X0276558Y0181002D01*
X0276414Y0180887D01*
X0276268Y0180776D01*
X0276119Y0180668D01*
X0275967Y0180564D01*
X0275812Y0180464D01*
X0275656Y0180367D01*
X0275497Y0180274D01*
X0275335Y0180186D01*
X0275172Y0180101D01*
X0275007Y0180020D01*
X0274839Y0179943D01*
X0274670Y0179871D01*
X0274499Y0179803D01*
X0274327Y0179738D01*
X0274153Y0179679D01*
X0273977Y0179623D01*
X0273800Y0179572D01*
X0273622Y0179525D01*
X0273443Y0179482D01*
X0273263Y0179444D01*
X0273082Y0179410D01*
X0272900Y0179381D01*
X0272718Y0179356D01*
X0272535Y0179336D01*
X0272352Y0179320D01*
X0272168Y0179309D01*
X0271984Y0179302D01*
X0271800Y0179300D01*
X0271616Y0179302D01*
X0271432Y0179309D01*
X0271248Y0179320D01*
X0271065Y0179336D01*
X0270882Y0179356D01*
X0270700Y0179381D01*
X0270518Y0179410D01*
X0270337Y0179444D01*
X0270157Y0179482D01*
X0269978Y0179525D01*
X0269800Y0179572D01*
X0269623Y0179623D01*
X0269447Y0179679D01*
X0269273Y0179738D01*
X0269101Y0179803D01*
X0268930Y0179871D01*
X0268761Y0179943D01*
X0268593Y0180020D01*
X0268428Y0180101D01*
X0268265Y0180186D01*
X0268103Y0180274D01*
X0267944Y0180367D01*
X0267788Y0180464D01*
X0267633Y0180564D01*
X0267481Y0180668D01*
X0267332Y0180776D01*
X0267186Y0180887D01*
X0267042Y0181002D01*
X0266901Y0181121D01*
X0266763Y0181243D01*
X0266628Y0181368D01*
X0266497Y0181497D01*
X0266368Y0181628D01*
X0266243Y0181763D01*
X0266121Y0181901D01*
X0266002Y0182042D01*
X0265887Y0182186D01*
X0265776Y0182332D01*
X0265668Y0182481D01*
X0265564Y0182633D01*
X0265464Y0182788D01*
X0265367Y0182944D01*
X0265274Y0183103D01*
X0265186Y0183265D01*
X0265101Y0183428D01*
X0265020Y0183593D01*
X0264943Y0183761D01*
X0264871Y0183930D01*
X0264803Y0184101D01*
X0264738Y0184273D01*
X0264679Y0184447D01*
X0264623Y0184623D01*
X0264572Y0184800D01*
X0264525Y0184978D01*
X0264482Y0185157D01*
X0264444Y0185337D01*
X0264410Y0185518D01*
X0264381Y0185700D01*
X0264356Y0185882D01*
X0264336Y0186065D01*
X0264320Y0186248D01*
X0264309Y0186432D01*
X0264302Y0186616D01*
X0264300Y0186800D01*
D11*
X0235816Y0059339D03*
X0235816Y0039339D03*
X0262383Y0049339D03*
X0047784Y0059261D03*
X0047784Y0039261D03*
X0021217Y0049261D03*
D12*
X0111300Y0114300D03*
X0122300Y0114300D03*
X0189300Y0131300D03*
X0189300Y0142300D03*
D13*
X0121800Y0096800D03*
D14*
X0111800Y0096800D03*
D15*
X0121800Y0134300D03*
D16*
X0111800Y0134300D03*
X0111800Y0144300D03*
X0121800Y0144300D03*
X0121800Y0154300D03*
X0111800Y0154300D03*
X0111800Y0164300D03*
X0121800Y0164300D03*
D17*
X0086800Y0116800D03*
X0056800Y0116800D03*
X0029300Y0116800D03*
X0029300Y0106800D03*
X0029300Y0096800D03*
X0201800Y0141800D03*
X0209300Y0131800D03*
X0231800Y0141800D03*
X0239300Y0131800D03*
D18*
X0224674Y0184300D03*
X0216800Y0184300D03*
X0209320Y0184300D03*
D19*
X0197902Y0184300D03*
X0235698Y0184300D03*
D20*
X0184300Y0184300D03*
X0174300Y0184300D03*
X0164300Y0184300D03*
X0154300Y0184300D03*
X0144300Y0184300D03*
X0134300Y0184300D03*
D21*
X0144300Y0169375D02*
X0144300Y0164225D01*
X0154300Y0164225D02*
X0154300Y0169375D01*
X0164300Y0169375D02*
X0164300Y0164225D01*
X0174300Y0164225D02*
X0174300Y0169375D01*
X0184300Y0169375D02*
X0184300Y0164225D01*
X0194300Y0164225D02*
X0194300Y0169375D01*
X0204300Y0169375D02*
X0204300Y0164225D01*
X0214300Y0164225D02*
X0214300Y0169375D01*
X0224300Y0169375D02*
X0224300Y0164225D01*
X0234300Y0164225D02*
X0234300Y0169375D01*
X0244300Y0169375D02*
X0244300Y0164225D01*
X0254300Y0164225D02*
X0254300Y0169375D01*
X0261725Y0161800D02*
X0266875Y0161800D01*
X0266875Y0151800D02*
X0261725Y0151800D01*
X0261725Y0141800D02*
X0266875Y0141800D01*
X0266875Y0131800D02*
X0261725Y0131800D01*
X0261725Y0121800D02*
X0266875Y0121800D01*
X0266875Y0111800D02*
X0261725Y0111800D01*
X0254300Y0109375D02*
X0254300Y0104225D01*
X0244300Y0104225D02*
X0244300Y0109375D01*
X0234300Y0109375D02*
X0234300Y0104225D01*
X0224300Y0104225D02*
X0224300Y0109375D01*
X0214300Y0109375D02*
X0214300Y0104225D01*
X0204300Y0104225D02*
X0204300Y0109375D01*
X0194300Y0109375D02*
X0194300Y0104225D01*
X0184300Y0104225D02*
X0184300Y0109375D01*
X0174300Y0109375D02*
X0174300Y0104225D01*
X0164300Y0104225D02*
X0164300Y0109375D01*
X0154300Y0109375D02*
X0154300Y0104225D01*
X0144300Y0104225D02*
X0144300Y0109375D01*
X0146875Y0121800D02*
X0141725Y0121800D01*
X0141725Y0131800D02*
X0146875Y0131800D01*
X0146875Y0141800D02*
X0141725Y0141800D01*
D22*
X0209300Y0121800D03*
X0219300Y0121800D03*
D23*
X0222402Y0124885D02*
X0251900Y0124885D01*
X0251900Y0123287D02*
X0223419Y0123287D01*
X0223675Y0122670D02*
X0223009Y0124278D01*
X0221778Y0125509D01*
X0220170Y0126175D01*
X0218430Y0126175D01*
X0216822Y0125509D01*
X0216500Y0125187D01*
X0216500Y0127677D01*
X0216135Y0128559D01*
X0214562Y0130132D01*
X0214800Y0130706D01*
X0214800Y0132894D01*
X0213963Y0134915D01*
X0212415Y0136463D01*
X0210394Y0137300D01*
X0208206Y0137300D01*
X0206184Y0136463D01*
X0204637Y0134915D01*
X0204341Y0134200D01*
X0204200Y0134200D01*
X0204200Y0136841D01*
X0204915Y0137137D01*
X0206463Y0138684D01*
X0207300Y0140706D01*
X0207300Y0142894D01*
X0206463Y0144915D01*
X0204915Y0146463D01*
X0202894Y0147300D01*
X0200706Y0147300D01*
X0198684Y0146463D01*
X0197137Y0144915D01*
X0196300Y0142894D01*
X0196300Y0140706D01*
X0197137Y0138684D01*
X0198684Y0137137D01*
X0199400Y0136841D01*
X0199400Y0134200D01*
X0194377Y0134200D01*
X0194217Y0134585D01*
X0192585Y0136217D01*
X0191162Y0136807D01*
X0191526Y0136925D01*
X0192340Y0137339D01*
X0193078Y0137876D01*
X0193724Y0138522D01*
X0194261Y0139260D01*
X0194675Y0140074D01*
X0194957Y0140942D01*
X0195100Y0141844D01*
X0195100Y0142100D01*
X0189500Y0142100D01*
X0189500Y0142500D01*
X0189100Y0142500D01*
X0189100Y0148100D01*
X0188844Y0148100D01*
X0187942Y0147957D01*
X0187074Y0147675D01*
X0186260Y0147261D01*
X0185522Y0146724D01*
X0184876Y0146078D01*
X0184339Y0145340D01*
X0183925Y0144526D01*
X0183643Y0143658D01*
X0183500Y0142756D01*
X0183500Y0142500D01*
X0189100Y0142500D01*
X0189100Y0142100D01*
X0183500Y0142100D01*
X0183500Y0141844D01*
X0183643Y0140942D01*
X0183925Y0140074D01*
X0184339Y0139260D01*
X0184876Y0138522D01*
X0185522Y0137876D01*
X0186260Y0137339D01*
X0187074Y0136925D01*
X0187438Y0136807D01*
X0186015Y0136217D01*
X0184383Y0134585D01*
X0183500Y0132454D01*
X0183500Y0130146D01*
X0184383Y0128015D01*
X0186015Y0126383D01*
X0188146Y0125500D01*
X0190454Y0125500D01*
X0192585Y0126383D01*
X0194217Y0128015D01*
X0194791Y0129400D01*
X0204341Y0129400D01*
X0204637Y0128684D01*
X0206184Y0127137D01*
X0208206Y0126300D01*
X0210394Y0126300D01*
X0211251Y0126655D01*
X0211700Y0126206D01*
X0211700Y0125541D01*
X0210170Y0126175D01*
X0208430Y0126175D01*
X0206822Y0125509D01*
X0205591Y0124278D01*
X0204925Y0122670D01*
X0204925Y0120930D01*
X0205591Y0119322D01*
X0206822Y0118091D01*
X0208430Y0117425D01*
X0210170Y0117425D01*
X0211700Y0118059D01*
X0211700Y0112962D01*
X0210591Y0111853D01*
X0209925Y0110245D01*
X0209925Y0103355D01*
X0210591Y0101747D01*
X0211822Y0100516D01*
X0213430Y0099850D01*
X0214156Y0099850D01*
X0212006Y0097700D01*
X0168194Y0097700D01*
X0171416Y0100922D01*
X0171822Y0100516D01*
X0173430Y0099850D01*
X0175170Y0099850D01*
X0176778Y0100516D01*
X0178009Y0101747D01*
X0178675Y0103355D01*
X0178675Y0110245D01*
X0178009Y0111853D01*
X0176778Y0113084D01*
X0175170Y0113750D01*
X0173430Y0113750D01*
X0171822Y0113084D01*
X0170591Y0111853D01*
X0169925Y0110245D01*
X0169925Y0106219D01*
X0168675Y0104969D01*
X0168675Y0110245D01*
X0168009Y0111853D01*
X0166778Y0113084D01*
X0165170Y0113750D01*
X0163430Y0113750D01*
X0161822Y0113084D01*
X0160591Y0111853D01*
X0159925Y0110245D01*
X0159925Y0103355D01*
X0160591Y0101747D01*
X0161822Y0100516D01*
X0163310Y0099900D01*
X0155290Y0099900D01*
X0156778Y0100516D01*
X0158009Y0101747D01*
X0158675Y0103355D01*
X0158675Y0110245D01*
X0158009Y0111853D01*
X0156778Y0113084D01*
X0155170Y0113750D01*
X0153430Y0113750D01*
X0151822Y0113084D01*
X0150591Y0111853D01*
X0149925Y0110245D01*
X0149925Y0106019D01*
X0148675Y0104769D01*
X0148675Y0110245D01*
X0148009Y0111853D01*
X0146778Y0113084D01*
X0146100Y0113364D01*
X0146100Y0113377D01*
X0145735Y0114259D01*
X0142569Y0117425D01*
X0147745Y0117425D01*
X0149353Y0118091D01*
X0150584Y0119322D01*
X0151250Y0120930D01*
X0151250Y0122670D01*
X0150584Y0124278D01*
X0149353Y0125509D01*
X0147745Y0126175D01*
X0140855Y0126175D01*
X0139247Y0125509D01*
X0138016Y0124278D01*
X0137350Y0122670D01*
X0137350Y0122644D01*
X0129600Y0130394D01*
X0129600Y0137577D01*
X0129235Y0138459D01*
X0127035Y0140659D01*
X0126359Y0141335D01*
X0125807Y0141563D01*
X0125843Y0141599D01*
X0125967Y0141900D01*
X0132277Y0141900D01*
X0133159Y0142265D01*
X0133835Y0142941D01*
X0137794Y0146900D01*
X0142277Y0146900D01*
X0143159Y0147265D01*
X0143835Y0147941D01*
X0146335Y0150441D01*
X0146700Y0151323D01*
X0146700Y0160484D01*
X0146778Y0160516D01*
X0148009Y0161747D01*
X0148675Y0163355D01*
X0148675Y0170245D01*
X0148009Y0171853D01*
X0147762Y0172100D01*
X0150838Y0172100D01*
X0150591Y0171853D01*
X0149925Y0170245D01*
X0149925Y0163355D01*
X0150591Y0161747D01*
X0151822Y0160516D01*
X0153430Y0159850D01*
X0155170Y0159850D01*
X0156778Y0160516D01*
X0158009Y0161747D01*
X0158675Y0163355D01*
X0158675Y0170245D01*
X0158009Y0171853D01*
X0157762Y0172100D01*
X0160838Y0172100D01*
X0160591Y0171853D01*
X0159925Y0170245D01*
X0159925Y0163355D01*
X0160591Y0161747D01*
X0161822Y0160516D01*
X0163430Y0159850D01*
X0165170Y0159850D01*
X0166778Y0160516D01*
X0168009Y0161747D01*
X0168675Y0163355D01*
X0168675Y0170245D01*
X0168009Y0171853D01*
X0167762Y0172100D01*
X0170838Y0172100D01*
X0170591Y0171853D01*
X0169925Y0170245D01*
X0169925Y0163355D01*
X0170591Y0161747D01*
X0171822Y0160516D01*
X0173430Y0159850D01*
X0175170Y0159850D01*
X0176778Y0160516D01*
X0178009Y0161747D01*
X0178675Y0163355D01*
X0178675Y0170245D01*
X0178009Y0171853D01*
X0177762Y0172100D01*
X0180838Y0172100D01*
X0180591Y0171853D01*
X0179925Y0170245D01*
X0179925Y0163355D01*
X0180591Y0161747D01*
X0181822Y0160516D01*
X0183430Y0159850D01*
X0185170Y0159850D01*
X0186778Y0160516D01*
X0188009Y0161747D01*
X0188675Y0163355D01*
X0188675Y0170245D01*
X0188009Y0171853D01*
X0187762Y0172100D01*
X0190838Y0172100D01*
X0190591Y0171853D01*
X0189925Y0170245D01*
X0189925Y0163355D01*
X0190591Y0161747D01*
X0191822Y0160516D01*
X0193430Y0159850D01*
X0195170Y0159850D01*
X0196778Y0160516D01*
X0198009Y0161747D01*
X0198675Y0163355D01*
X0198675Y0168931D01*
X0199925Y0167681D01*
X0199925Y0163355D01*
X0200591Y0161747D01*
X0201822Y0160516D01*
X0203430Y0159850D01*
X0205170Y0159850D01*
X0206778Y0160516D01*
X0208009Y0161747D01*
X0208675Y0163355D01*
X0208675Y0170245D01*
X0208009Y0171853D01*
X0206778Y0173084D01*
X0205170Y0173750D01*
X0203430Y0173750D01*
X0201822Y0173084D01*
X0201566Y0172828D01*
X0198535Y0175859D01*
X0197859Y0176535D01*
X0196977Y0176900D01*
X0101523Y0176900D01*
X0100641Y0176535D01*
X0097941Y0173835D01*
X0097265Y0173159D01*
X0096900Y0172277D01*
X0096900Y0137794D01*
X0088306Y0129200D01*
X0066323Y0129200D01*
X0065441Y0128835D01*
X0058610Y0122004D01*
X0057894Y0122300D01*
X0055706Y0122300D01*
X0053684Y0121463D01*
X0052137Y0119915D01*
X0051924Y0119400D01*
X0034176Y0119400D01*
X0033963Y0119915D01*
X0032415Y0121463D01*
X0030394Y0122300D01*
X0028206Y0122300D01*
X0026184Y0121463D01*
X0024637Y0119915D01*
X0023800Y0117894D01*
X0023800Y0115706D01*
X0024637Y0113684D01*
X0026184Y0112137D01*
X0026999Y0111800D01*
X0026184Y0111463D01*
X0024637Y0109915D01*
X0023800Y0107894D01*
X0023800Y0105706D01*
X0024637Y0103684D01*
X0026184Y0102137D01*
X0026999Y0101800D01*
X0026417Y0101504D01*
X0025717Y0100995D01*
X0025105Y0100383D01*
X0024596Y0099683D01*
X0024203Y0098911D01*
X0023935Y0098088D01*
X0023800Y0097233D01*
X0023800Y0096800D01*
X0029300Y0096800D01*
X0034800Y0096800D01*
X0034800Y0097233D01*
X0034665Y0098088D01*
X0034397Y0098911D01*
X0034004Y0099683D01*
X0033495Y0100383D01*
X0032883Y0100995D01*
X0032183Y0101504D01*
X0031601Y0101800D01*
X0032415Y0102137D01*
X0033963Y0103684D01*
X0034176Y0104200D01*
X0084817Y0104200D01*
X0085773Y0104596D01*
X0086504Y0105327D01*
X0089004Y0107827D01*
X0089400Y0108783D01*
X0089400Y0111924D01*
X0089915Y0112137D01*
X0091463Y0113684D01*
X0091510Y0113800D01*
X0093206Y0113800D01*
X0106465Y0100541D01*
X0106465Y0100541D01*
X0107141Y0099865D01*
X0107636Y0099660D01*
X0107481Y0099447D01*
X0107120Y0098739D01*
X0106874Y0097983D01*
X0106750Y0097197D01*
X0106750Y0096800D01*
X0111800Y0096800D01*
X0111800Y0091750D01*
X0112197Y0091750D01*
X0112983Y0091874D01*
X0113739Y0092120D01*
X0114447Y0092481D01*
X0115090Y0092948D01*
X0115652Y0093510D01*
X0116119Y0094153D01*
X0116480Y0094861D01*
X0116726Y0095617D01*
X0116750Y0095771D01*
X0116750Y0092804D01*
X0117804Y0091750D01*
X0125796Y0091750D01*
X0126850Y0092804D01*
X0126850Y0092900D01*
X0213477Y0092900D01*
X0214359Y0093265D01*
X0215035Y0093941D01*
X0221716Y0100622D01*
X0221822Y0100516D01*
X0223430Y0099850D01*
X0225170Y0099850D01*
X0226778Y0100516D01*
X0228009Y0101747D01*
X0228675Y0103355D01*
X0228675Y0110245D01*
X0228009Y0111853D01*
X0226778Y0113084D01*
X0225170Y0113750D01*
X0223430Y0113750D01*
X0221822Y0113084D01*
X0220591Y0111853D01*
X0219925Y0110245D01*
X0219925Y0105619D01*
X0218675Y0104369D01*
X0218675Y0110245D01*
X0218009Y0111853D01*
X0216778Y0113084D01*
X0216500Y0113199D01*
X0216500Y0118413D01*
X0216822Y0118091D01*
X0218430Y0117425D01*
X0220170Y0117425D01*
X0221778Y0118091D01*
X0223009Y0119322D01*
X0223675Y0120930D01*
X0223675Y0122670D01*
X0223675Y0121688D02*
X0251900Y0121688D01*
X0251900Y0120090D02*
X0223327Y0120090D01*
X0222178Y0118491D02*
X0251900Y0118491D01*
X0251900Y0116893D02*
X0216500Y0116893D01*
X0216500Y0115294D02*
X0251900Y0115294D01*
X0251900Y0113696D02*
X0244984Y0113696D01*
X0245324Y0113642D02*
X0244644Y0113750D01*
X0244300Y0113750D01*
X0243956Y0113750D01*
X0243276Y0113642D01*
X0242621Y0113429D01*
X0242007Y0113116D01*
X0241450Y0112712D01*
X0240963Y0112225D01*
X0240558Y0111668D01*
X0240246Y0111054D01*
X0240033Y0110399D01*
X0239925Y0109719D01*
X0239925Y0106800D01*
X0244300Y0106800D01*
X0248675Y0106800D01*
X0248675Y0109719D01*
X0248567Y0110399D01*
X0248354Y0111054D01*
X0248042Y0111668D01*
X0247637Y0112225D01*
X0247150Y0112712D01*
X0246593Y0113116D01*
X0245979Y0113429D01*
X0245324Y0113642D01*
X0244300Y0113696D02*
X0244300Y0113696D01*
X0244300Y0113750D02*
X0244300Y0106800D01*
X0244300Y0106800D01*
X0244300Y0106800D01*
X0244300Y0113750D01*
X0243616Y0113696D02*
X0235300Y0113696D01*
X0235170Y0113750D02*
X0233430Y0113750D01*
X0231822Y0113084D01*
X0230591Y0111853D01*
X0229925Y0110245D01*
X0229925Y0103355D01*
X0230591Y0101747D01*
X0231822Y0100516D01*
X0233430Y0099850D01*
X0235170Y0099850D01*
X0236778Y0100516D01*
X0238009Y0101747D01*
X0238675Y0103355D01*
X0238675Y0110245D01*
X0238009Y0111853D01*
X0236778Y0113084D01*
X0235170Y0113750D01*
X0233300Y0113696D02*
X0225300Y0113696D01*
X0223300Y0113696D02*
X0216500Y0113696D01*
X0217764Y0112097D02*
X0220836Y0112097D01*
X0220030Y0110499D02*
X0218570Y0110499D01*
X0218675Y0108900D02*
X0219925Y0108900D01*
X0219925Y0107302D02*
X0218675Y0107302D01*
X0218675Y0105703D02*
X0219925Y0105703D01*
X0220403Y0099309D02*
X0271700Y0099309D01*
X0271700Y0097711D02*
X0218805Y0097711D01*
X0217206Y0096112D02*
X0271700Y0096112D01*
X0271700Y0094514D02*
X0215608Y0094514D01*
X0213514Y0092915D02*
X0271700Y0092915D01*
X0271700Y0091317D02*
X0029838Y0091317D01*
X0029733Y0091300D02*
X0030588Y0091435D01*
X0031411Y0091703D01*
X0032183Y0092096D01*
X0032883Y0092605D01*
X0033495Y0093217D01*
X0034004Y0093917D01*
X0034397Y0094689D01*
X0034665Y0095512D01*
X0034800Y0096367D01*
X0034800Y0096800D01*
X0029300Y0096800D01*
X0029300Y0096800D01*
X0029300Y0091300D01*
X0029733Y0091300D01*
X0029300Y0091300D02*
X0029300Y0096800D01*
X0029300Y0096800D01*
X0029300Y0096800D01*
X0023800Y0096800D01*
X0023800Y0096367D01*
X0023935Y0095512D01*
X0024203Y0094689D01*
X0024596Y0093917D01*
X0025105Y0093217D01*
X0025717Y0092605D01*
X0026417Y0092096D01*
X0027189Y0091703D01*
X0028012Y0091435D01*
X0028867Y0091300D01*
X0029300Y0091300D01*
X0029300Y0091317D02*
X0029300Y0091317D01*
X0028762Y0091317D02*
X0006600Y0091317D01*
X0006600Y0092915D02*
X0025407Y0092915D01*
X0024292Y0094514D02*
X0006600Y0094514D01*
X0006600Y0096112D02*
X0023840Y0096112D01*
X0023876Y0097711D02*
X0006600Y0097711D01*
X0006600Y0099309D02*
X0024406Y0099309D01*
X0025630Y0100908D02*
X0006600Y0100908D01*
X0006600Y0102506D02*
X0025816Y0102506D01*
X0024463Y0104105D02*
X0006600Y0104105D01*
X0006600Y0105703D02*
X0023801Y0105703D01*
X0023800Y0107302D02*
X0006600Y0107302D01*
X0006600Y0108900D02*
X0024217Y0108900D01*
X0025221Y0110499D02*
X0006600Y0110499D01*
X0006600Y0112097D02*
X0026281Y0112097D01*
X0024633Y0113696D02*
X0006600Y0113696D01*
X0006600Y0115294D02*
X0023971Y0115294D01*
X0023800Y0116893D02*
X0006600Y0116893D01*
X0006600Y0118491D02*
X0024047Y0118491D01*
X0024812Y0120090D02*
X0006600Y0120090D01*
X0006600Y0121688D02*
X0026729Y0121688D01*
X0031871Y0121688D02*
X0054229Y0121688D01*
X0052312Y0120090D02*
X0033788Y0120090D01*
X0029300Y0116800D02*
X0056800Y0116800D01*
X0059893Y0123287D02*
X0006600Y0123287D01*
X0006600Y0124885D02*
X0061491Y0124885D01*
X0063090Y0126484D02*
X0006600Y0126484D01*
X0006600Y0128082D02*
X0064688Y0128082D01*
X0086800Y0116800D02*
X0086800Y0109300D01*
X0084300Y0106800D01*
X0029300Y0106800D01*
X0032784Y0102506D02*
X0104500Y0102506D01*
X0106098Y0100908D02*
X0032970Y0100908D01*
X0034194Y0099309D02*
X0107411Y0099309D01*
X0106831Y0097711D02*
X0034724Y0097711D01*
X0034760Y0096112D02*
X0106796Y0096112D01*
X0106750Y0096403D02*
X0106874Y0095617D01*
X0107120Y0094861D01*
X0107481Y0094153D01*
X0107948Y0093510D01*
X0108510Y0092948D01*
X0109153Y0092481D01*
X0109861Y0092120D01*
X0110617Y0091874D01*
X0111403Y0091750D01*
X0111800Y0091750D01*
X0111800Y0096800D01*
X0111800Y0096800D01*
X0111800Y0096800D01*
X0106750Y0096800D01*
X0106750Y0096403D01*
X0107297Y0094514D02*
X0034308Y0094514D01*
X0033193Y0092915D02*
X0108555Y0092915D01*
X0111800Y0092915D02*
X0111800Y0092915D01*
X0111800Y0094514D02*
X0111800Y0094514D01*
X0111800Y0096112D02*
X0111800Y0096112D01*
X0115045Y0092915D02*
X0116750Y0092915D01*
X0116750Y0094514D02*
X0116303Y0094514D01*
X0102901Y0104105D02*
X0034137Y0104105D01*
X0029300Y0096112D02*
X0029300Y0096112D01*
X0029300Y0094514D02*
X0029300Y0094514D01*
X0029300Y0092915D02*
X0029300Y0092915D01*
X0006600Y0089718D02*
X0271700Y0089718D01*
X0271700Y0088120D02*
X0006600Y0088120D01*
X0006600Y0086521D02*
X0270344Y0086521D01*
X0271700Y0087877D02*
X0268778Y0084955D01*
X0267990Y0085281D01*
X0265610Y0085281D01*
X0263412Y0084371D01*
X0261729Y0082688D01*
X0260819Y0080490D01*
X0260819Y0078110D01*
X0261729Y0075912D01*
X0263412Y0074229D01*
X0265610Y0073319D01*
X0267990Y0073319D01*
X0270188Y0074229D01*
X0271871Y0075912D01*
X0272781Y0078110D01*
X0272781Y0080490D01*
X0272455Y0081278D01*
X0276504Y0085327D01*
X0276900Y0086283D01*
X0276900Y0174817D01*
X0276658Y0175402D01*
X0277000Y0175599D01*
X0277000Y0068000D01*
X0264437Y0068000D01*
X0264437Y0071697D01*
X0263734Y0072400D01*
X0225240Y0072400D01*
X0224537Y0071697D01*
X0224537Y0026903D01*
X0225240Y0026200D01*
X0263734Y0026200D01*
X0264437Y0026903D01*
X0264437Y0030600D01*
X0277000Y0030600D01*
X0277000Y0028001D01*
X0276548Y0028262D01*
X0273419Y0029100D01*
X0270181Y0029100D01*
X0267052Y0028262D01*
X0264248Y0026642D01*
X0261958Y0024352D01*
X0260338Y0021548D01*
X0259500Y0018419D01*
X0259500Y0015181D01*
X0260338Y0012052D01*
X0261958Y0009248D01*
X0264248Y0006958D01*
X0264867Y0006600D01*
X0023733Y0006600D01*
X0024352Y0006958D01*
X0026642Y0009248D01*
X0028262Y0012052D01*
X0029100Y0015181D01*
X0029100Y0018419D01*
X0028262Y0021548D01*
X0026642Y0024352D01*
X0024834Y0026161D01*
X0058714Y0026161D01*
X0059417Y0026864D01*
X0059417Y0071658D01*
X0058714Y0072361D01*
X0058399Y0072361D01*
X0058360Y0072400D01*
X0019866Y0072400D01*
X0019163Y0071697D01*
X0019163Y0068000D01*
X0006600Y0068000D01*
X0006600Y0179867D01*
X0006958Y0179248D01*
X0009248Y0176958D01*
X0012052Y0175338D01*
X0015181Y0174500D01*
X0018419Y0174500D01*
X0021548Y0175338D01*
X0024352Y0176958D01*
X0026642Y0179248D01*
X0028262Y0182052D01*
X0029100Y0185181D01*
X0029100Y0188419D01*
X0028262Y0191548D01*
X0026642Y0194352D01*
X0024352Y0196642D01*
X0023733Y0197000D01*
X0264867Y0197000D01*
X0264248Y0196642D01*
X0261958Y0194352D01*
X0260338Y0191548D01*
X0259500Y0188419D01*
X0259500Y0185181D01*
X0260338Y0182052D01*
X0261958Y0179248D01*
X0264248Y0176958D01*
X0264347Y0176900D01*
X0232877Y0176900D01*
X0228328Y0181449D01*
X0228574Y0181694D01*
X0228995Y0182712D01*
X0229933Y0180448D01*
X0231846Y0178535D01*
X0234345Y0177500D01*
X0237050Y0177500D01*
X0239550Y0178535D01*
X0241462Y0180448D01*
X0242498Y0182947D01*
X0242498Y0185653D01*
X0241462Y0188152D01*
X0239550Y0190065D01*
X0237050Y0191100D01*
X0234345Y0191100D01*
X0231846Y0190065D01*
X0229933Y0188152D01*
X0228995Y0185888D01*
X0228574Y0186906D01*
X0227280Y0188200D01*
X0225589Y0188900D01*
X0223759Y0188900D01*
X0222068Y0188200D01*
X0220774Y0186906D01*
X0220737Y0186816D01*
X0220700Y0186906D01*
X0219406Y0188200D01*
X0217715Y0188900D01*
X0215885Y0188900D01*
X0214194Y0188200D01*
X0213060Y0187065D01*
X0211925Y0188200D01*
X0210235Y0188900D01*
X0208405Y0188900D01*
X0206714Y0188200D01*
X0205420Y0186906D01*
X0204720Y0185215D01*
X0204720Y0183385D01*
X0205420Y0181694D01*
X0206714Y0180400D01*
X0208405Y0179700D01*
X0210235Y0179700D01*
X0211925Y0180400D01*
X0213060Y0181535D01*
X0214194Y0180400D01*
X0214400Y0180315D01*
X0214400Y0176323D01*
X0214765Y0175441D01*
X0216900Y0173306D01*
X0216900Y0172962D01*
X0216778Y0173084D01*
X0215170Y0173750D01*
X0213430Y0173750D01*
X0211822Y0173084D01*
X0210591Y0171853D01*
X0209925Y0170245D01*
X0209925Y0163355D01*
X0210591Y0161747D01*
X0211822Y0160516D01*
X0213430Y0159850D01*
X0215170Y0159850D01*
X0216778Y0160516D01*
X0216900Y0160638D01*
X0216900Y0151323D01*
X0217265Y0150441D01*
X0219765Y0147941D01*
X0220441Y0147265D01*
X0221323Y0146900D01*
X0229698Y0146900D01*
X0229689Y0146897D01*
X0228917Y0146504D01*
X0228217Y0145995D01*
X0227605Y0145383D01*
X0227096Y0144683D01*
X0226703Y0143911D01*
X0226435Y0143088D01*
X0226300Y0142233D01*
X0226300Y0141886D01*
X0231714Y0141886D01*
X0231714Y0141714D01*
X0231886Y0141714D01*
X0231886Y0136300D01*
X0232233Y0136300D01*
X0233088Y0136435D01*
X0233911Y0136703D01*
X0234683Y0137096D01*
X0235383Y0137605D01*
X0235995Y0138217D01*
X0236504Y0138917D01*
X0236897Y0139689D01*
X0236900Y0139698D01*
X0236900Y0136759D01*
X0236184Y0136463D01*
X0234637Y0134915D01*
X0233800Y0132894D01*
X0233800Y0130706D01*
X0234637Y0128684D01*
X0236184Y0127137D01*
X0238206Y0126300D01*
X0240394Y0126300D01*
X0242415Y0127137D01*
X0243963Y0128684D01*
X0244259Y0129400D01*
X0250806Y0129400D01*
X0251900Y0128306D01*
X0251900Y0113116D01*
X0251822Y0113084D01*
X0250591Y0111853D01*
X0249925Y0110245D01*
X0249925Y0103355D01*
X0250591Y0101747D01*
X0251822Y0100516D01*
X0253430Y0099850D01*
X0255170Y0099850D01*
X0256778Y0100516D01*
X0258009Y0101747D01*
X0258675Y0103355D01*
X0258675Y0108663D01*
X0258875Y0108463D01*
X0259432Y0108058D01*
X0260046Y0107746D01*
X0260701Y0107533D01*
X0261381Y0107425D01*
X0264300Y0107425D01*
X0267219Y0107425D01*
X0267899Y0107533D01*
X0268554Y0107746D01*
X0269168Y0108058D01*
X0269725Y0108463D01*
X0270212Y0108950D01*
X0270616Y0109507D01*
X0270929Y0110121D01*
X0271142Y0110776D01*
X0271250Y0111456D01*
X0271250Y0111800D01*
X0271250Y0112144D01*
X0271142Y0112824D01*
X0270929Y0113479D01*
X0270616Y0114093D01*
X0270212Y0114650D01*
X0269725Y0115137D01*
X0269168Y0115542D01*
X0268554Y0115854D01*
X0267899Y0116067D01*
X0267219Y0116175D01*
X0264300Y0116175D01*
X0264300Y0111800D01*
X0264300Y0111800D01*
X0271250Y0111800D01*
X0264300Y0111800D01*
X0264300Y0111800D01*
X0264300Y0116175D01*
X0261381Y0116175D01*
X0260701Y0116067D01*
X0260046Y0115854D01*
X0259432Y0115542D01*
X0258875Y0115137D01*
X0258388Y0114650D01*
X0257984Y0114093D01*
X0257671Y0113479D01*
X0257458Y0112824D01*
X0257401Y0112461D01*
X0256778Y0113084D01*
X0256700Y0113116D01*
X0256700Y0129777D01*
X0256335Y0130659D01*
X0255659Y0131335D01*
X0253159Y0133835D01*
X0252277Y0134200D01*
X0244259Y0134200D01*
X0243963Y0134915D01*
X0242415Y0136463D01*
X0241700Y0136759D01*
X0241700Y0147277D01*
X0241335Y0148159D01*
X0240659Y0148835D01*
X0238159Y0151335D01*
X0237277Y0151700D01*
X0222794Y0151700D01*
X0221700Y0152794D01*
X0221700Y0160638D01*
X0221822Y0160516D01*
X0223430Y0159850D01*
X0225170Y0159850D01*
X0226778Y0160516D01*
X0228009Y0161747D01*
X0228675Y0163355D01*
X0228675Y0170245D01*
X0228009Y0171853D01*
X0226778Y0173084D01*
X0225170Y0173750D01*
X0223430Y0173750D01*
X0221822Y0173084D01*
X0221700Y0172962D01*
X0221700Y0174777D01*
X0221335Y0175659D01*
X0220659Y0176335D01*
X0219200Y0177794D01*
X0219200Y0180315D01*
X0219406Y0180400D01*
X0220700Y0181694D01*
X0220737Y0181784D01*
X0220774Y0181694D01*
X0222068Y0180400D01*
X0222329Y0180292D01*
X0222470Y0179953D01*
X0229596Y0172827D01*
X0230327Y0172096D01*
X0230686Y0171947D01*
X0230591Y0171853D01*
X0229925Y0170245D01*
X0229925Y0163355D01*
X0230591Y0161747D01*
X0231822Y0160516D01*
X0233430Y0159850D01*
X0235170Y0159850D01*
X0236778Y0160516D01*
X0238009Y0161747D01*
X0238675Y0163355D01*
X0238675Y0170245D01*
X0238072Y0171700D01*
X0240528Y0171700D01*
X0239925Y0170245D01*
X0239925Y0163355D01*
X0240591Y0161747D01*
X0241822Y0160516D01*
X0243430Y0159850D01*
X0245170Y0159850D01*
X0246778Y0160516D01*
X0248009Y0161747D01*
X0248675Y0163355D01*
X0248675Y0170245D01*
X0248072Y0171700D01*
X0250528Y0171700D01*
X0249925Y0170245D01*
X0249925Y0163355D01*
X0250591Y0161747D01*
X0251822Y0160516D01*
X0253430Y0159850D01*
X0255170Y0159850D01*
X0256778Y0160516D01*
X0257350Y0161089D01*
X0257350Y0160930D01*
X0258016Y0159322D01*
X0259247Y0158091D01*
X0260855Y0157425D01*
X0267745Y0157425D01*
X0269353Y0158091D01*
X0270584Y0159322D01*
X0271250Y0160930D01*
X0271250Y0162670D01*
X0270584Y0164278D01*
X0269353Y0165509D01*
X0267745Y0166175D01*
X0260855Y0166175D01*
X0259247Y0165509D01*
X0258675Y0164936D01*
X0258675Y0170245D01*
X0258072Y0171700D01*
X0271700Y0171700D01*
X0271700Y0087877D01*
X0274300Y0086800D02*
X0266800Y0079300D01*
X0272292Y0076930D02*
X0277000Y0076930D01*
X0277000Y0075332D02*
X0271290Y0075332D01*
X0268989Y0073733D02*
X0277000Y0073733D01*
X0277000Y0072134D02*
X0264000Y0072134D01*
X0264437Y0070536D02*
X0277000Y0070536D01*
X0277000Y0068937D02*
X0264437Y0068937D01*
X0264611Y0073733D02*
X0006600Y0073733D01*
X0006600Y0072134D02*
X0019600Y0072134D01*
X0019163Y0070536D02*
X0006600Y0070536D01*
X0006600Y0068937D02*
X0019163Y0068937D01*
X0021878Y0068937D02*
X0056663Y0068937D01*
X0056663Y0069961D02*
X0056663Y0028600D01*
X0021878Y0028600D01*
X0021878Y0032258D01*
X0021175Y0032961D01*
X0020899Y0032961D01*
X0020860Y0033000D01*
X0008178Y0033000D01*
X0008178Y0065561D01*
X0021175Y0065561D01*
X0021878Y0066264D01*
X0021878Y0069961D01*
X0056663Y0069961D01*
X0056663Y0067339D02*
X0021878Y0067339D01*
X0021355Y0065740D02*
X0044613Y0065740D01*
X0043706Y0065364D02*
X0041680Y0063339D01*
X0040584Y0060693D01*
X0040584Y0057828D01*
X0041680Y0055182D01*
X0043706Y0053157D01*
X0046352Y0052061D01*
X0049216Y0052061D01*
X0051863Y0053157D01*
X0053888Y0055182D01*
X0054984Y0057828D01*
X0054984Y0060693D01*
X0053888Y0063339D01*
X0051863Y0065364D01*
X0049216Y0066461D01*
X0046352Y0066461D01*
X0043706Y0065364D01*
X0042483Y0064142D02*
X0008178Y0064142D01*
X0008178Y0062543D02*
X0041351Y0062543D01*
X0040689Y0060945D02*
X0008178Y0060945D01*
X0008178Y0059346D02*
X0040584Y0059346D01*
X0040618Y0057748D02*
X0008178Y0057748D01*
X0008178Y0056149D02*
X0019108Y0056149D01*
X0018898Y0056093D02*
X0018026Y0055732D01*
X0017209Y0055260D01*
X0016460Y0054685D01*
X0015792Y0054018D01*
X0015218Y0053269D01*
X0014746Y0052452D01*
X0014385Y0051580D01*
X0014141Y0050668D01*
X0014061Y0050061D01*
X0020417Y0050061D01*
X0020417Y0056417D01*
X0019810Y0056337D01*
X0018898Y0056093D01*
X0020417Y0056149D02*
X0022017Y0056149D01*
X0022017Y0056417D02*
X0022625Y0056337D01*
X0023537Y0056093D01*
X0024409Y0055732D01*
X0025226Y0055260D01*
X0025975Y0054685D01*
X0026642Y0054018D01*
X0027217Y0053269D01*
X0027689Y0052452D01*
X0028050Y0051580D01*
X0028294Y0050668D01*
X0028374Y0050061D01*
X0022017Y0050061D01*
X0020417Y0050061D01*
X0020417Y0048461D01*
X0014061Y0048461D01*
X0014141Y0047853D01*
X0014385Y0046941D01*
X0014746Y0046069D01*
X0015218Y0045252D01*
X0015792Y0044503D01*
X0016460Y0043836D01*
X0017209Y0043261D01*
X0018026Y0042789D01*
X0018898Y0042428D01*
X0019810Y0042184D01*
X0020417Y0042104D01*
X0020417Y0048461D01*
X0022017Y0048461D01*
X0022017Y0050061D01*
X0022017Y0056417D01*
X0023327Y0056149D02*
X0041280Y0056149D01*
X0042312Y0054551D02*
X0026109Y0054551D01*
X0027400Y0052952D02*
X0044199Y0052952D01*
X0046352Y0046461D02*
X0043706Y0045364D01*
X0041680Y0043339D01*
X0040584Y0040693D01*
X0040584Y0037828D01*
X0041680Y0035182D01*
X0043706Y0033157D01*
X0046352Y0032061D01*
X0049216Y0032061D01*
X0051863Y0033157D01*
X0053888Y0035182D01*
X0054984Y0037828D01*
X0054984Y0040693D01*
X0053888Y0043339D01*
X0051863Y0045364D01*
X0049216Y0046461D01*
X0046352Y0046461D01*
X0043301Y0044960D02*
X0026993Y0044960D01*
X0027217Y0045252D02*
X0027689Y0046069D01*
X0028050Y0046941D01*
X0028294Y0047853D01*
X0028374Y0048461D01*
X0022017Y0048461D01*
X0022017Y0042104D01*
X0022625Y0042184D01*
X0023537Y0042428D01*
X0024409Y0042789D01*
X0025226Y0043261D01*
X0025975Y0043836D01*
X0026642Y0044503D01*
X0027217Y0045252D01*
X0027891Y0046558D02*
X0056663Y0046558D01*
X0056663Y0044960D02*
X0052267Y0044960D01*
X0053866Y0043361D02*
X0056663Y0043361D01*
X0056663Y0041763D02*
X0054541Y0041763D01*
X0054984Y0040164D02*
X0056663Y0040164D01*
X0056663Y0038566D02*
X0054984Y0038566D01*
X0054628Y0036967D02*
X0056663Y0036967D01*
X0056663Y0035369D02*
X0053965Y0035369D01*
X0052476Y0033770D02*
X0056663Y0033770D01*
X0056663Y0032172D02*
X0049485Y0032172D01*
X0046084Y0032172D02*
X0021878Y0032172D01*
X0021878Y0030573D02*
X0056663Y0030573D01*
X0056663Y0028975D02*
X0021878Y0028975D01*
X0025217Y0025778D02*
X0263383Y0025778D01*
X0264437Y0027376D02*
X0265518Y0027376D01*
X0264437Y0028975D02*
X0269713Y0028975D01*
X0273887Y0028975D02*
X0277000Y0028975D01*
X0277000Y0030573D02*
X0264437Y0030573D01*
X0261858Y0024179D02*
X0026742Y0024179D01*
X0027665Y0022581D02*
X0260935Y0022581D01*
X0260187Y0020982D02*
X0028413Y0020982D01*
X0028842Y0019384D02*
X0259758Y0019384D01*
X0259500Y0017785D02*
X0029100Y0017785D01*
X0029100Y0016187D02*
X0259500Y0016187D01*
X0259659Y0014588D02*
X0028941Y0014588D01*
X0028513Y0012990D02*
X0260087Y0012990D01*
X0260720Y0011391D02*
X0027880Y0011391D01*
X0026957Y0009793D02*
X0261643Y0009793D01*
X0263011Y0008194D02*
X0025589Y0008194D01*
X0059417Y0027376D02*
X0224537Y0027376D01*
X0224537Y0028975D02*
X0059417Y0028975D01*
X0059417Y0030573D02*
X0224537Y0030573D01*
X0224537Y0032172D02*
X0059417Y0032172D01*
X0059417Y0033770D02*
X0224537Y0033770D01*
X0224537Y0035369D02*
X0059417Y0035369D01*
X0059417Y0036967D02*
X0224537Y0036967D01*
X0224537Y0038566D02*
X0059417Y0038566D01*
X0059417Y0040164D02*
X0224537Y0040164D01*
X0224537Y0041763D02*
X0059417Y0041763D01*
X0059417Y0043361D02*
X0224537Y0043361D01*
X0224537Y0044960D02*
X0059417Y0044960D01*
X0059417Y0046558D02*
X0224537Y0046558D01*
X0224537Y0048157D02*
X0059417Y0048157D01*
X0059417Y0049755D02*
X0224537Y0049755D01*
X0224537Y0051354D02*
X0059417Y0051354D01*
X0059417Y0052952D02*
X0224537Y0052952D01*
X0224537Y0054551D02*
X0059417Y0054551D01*
X0059417Y0056149D02*
X0224537Y0056149D01*
X0224537Y0057748D02*
X0059417Y0057748D01*
X0059417Y0059346D02*
X0224537Y0059346D01*
X0224537Y0060945D02*
X0059417Y0060945D01*
X0059417Y0062543D02*
X0224537Y0062543D01*
X0224537Y0064142D02*
X0059417Y0064142D01*
X0059417Y0065740D02*
X0224537Y0065740D01*
X0224537Y0067339D02*
X0059417Y0067339D01*
X0059417Y0068937D02*
X0224537Y0068937D01*
X0224537Y0070536D02*
X0059417Y0070536D01*
X0058940Y0072134D02*
X0224974Y0072134D01*
X0212017Y0097711D02*
X0168205Y0097711D01*
X0169803Y0099309D02*
X0213615Y0099309D01*
X0211431Y0100908D02*
X0207169Y0100908D01*
X0206778Y0100516D02*
X0208009Y0101747D01*
X0208675Y0103355D01*
X0208675Y0110245D01*
X0208009Y0111853D01*
X0206778Y0113084D01*
X0205170Y0113750D01*
X0203430Y0113750D01*
X0201822Y0113084D01*
X0200591Y0111853D01*
X0199925Y0110245D01*
X0199925Y0103355D01*
X0200591Y0101747D01*
X0201822Y0100516D01*
X0203430Y0099850D01*
X0205170Y0099850D01*
X0206778Y0100516D01*
X0208323Y0102506D02*
X0210277Y0102506D01*
X0209925Y0104105D02*
X0208675Y0104105D01*
X0208675Y0105703D02*
X0209925Y0105703D01*
X0209925Y0107302D02*
X0208675Y0107302D01*
X0208675Y0108900D02*
X0209925Y0108900D01*
X0210030Y0110499D02*
X0208570Y0110499D01*
X0207764Y0112097D02*
X0210836Y0112097D01*
X0211700Y0113696D02*
X0205300Y0113696D01*
X0203300Y0113696D02*
X0195300Y0113696D01*
X0195170Y0113750D02*
X0193430Y0113750D01*
X0191822Y0113084D01*
X0190591Y0111853D01*
X0189925Y0110245D01*
X0189925Y0103355D01*
X0190591Y0101747D01*
X0191822Y0100516D01*
X0193430Y0099850D01*
X0195170Y0099850D01*
X0196778Y0100516D01*
X0198009Y0101747D01*
X0198675Y0103355D01*
X0198675Y0110245D01*
X0198009Y0111853D01*
X0196778Y0113084D01*
X0195170Y0113750D01*
X0193300Y0113696D02*
X0185300Y0113696D01*
X0185170Y0113750D02*
X0183430Y0113750D01*
X0181822Y0113084D01*
X0180591Y0111853D01*
X0179925Y0110245D01*
X0179925Y0103355D01*
X0180591Y0101747D01*
X0181822Y0100516D01*
X0183430Y0099850D01*
X0185170Y0099850D01*
X0186778Y0100516D01*
X0188009Y0101747D01*
X0188675Y0103355D01*
X0188675Y0110245D01*
X0188009Y0111853D01*
X0186778Y0113084D01*
X0185170Y0113750D01*
X0183300Y0113696D02*
X0175300Y0113696D01*
X0173300Y0113696D02*
X0165300Y0113696D01*
X0163300Y0113696D02*
X0155300Y0113696D01*
X0153300Y0113696D02*
X0145968Y0113696D01*
X0144700Y0115294D02*
X0211700Y0115294D01*
X0211700Y0116893D02*
X0143101Y0116893D01*
X0139510Y0113696D02*
X0128100Y0113696D01*
X0128100Y0113146D02*
X0128100Y0115454D01*
X0127217Y0117585D01*
X0125585Y0119217D01*
X0123454Y0120100D01*
X0121146Y0120100D01*
X0120402Y0119792D01*
X0114200Y0125994D01*
X0114200Y0130133D01*
X0114501Y0130257D01*
X0115843Y0131599D01*
X0116568Y0133351D01*
X0116568Y0135249D01*
X0115884Y0136900D01*
X0117031Y0136900D01*
X0117031Y0134484D01*
X0121616Y0134484D01*
X0121616Y0134116D01*
X0121984Y0134116D01*
X0121984Y0129531D01*
X0124800Y0129531D01*
X0124800Y0128923D01*
X0125165Y0128041D01*
X0125841Y0127365D01*
X0140972Y0112234D01*
X0140591Y0111853D01*
X0139925Y0110245D01*
X0139925Y0103355D01*
X0140445Y0102100D01*
X0132594Y0102100D01*
X0125391Y0109303D01*
X0125585Y0109383D01*
X0127217Y0111015D01*
X0128100Y0113146D01*
X0127665Y0112097D02*
X0140836Y0112097D01*
X0140030Y0110499D02*
X0126701Y0110499D01*
X0125794Y0108900D02*
X0139925Y0108900D01*
X0139925Y0107302D02*
X0127392Y0107302D01*
X0128991Y0105703D02*
X0139925Y0105703D01*
X0139925Y0104105D02*
X0130589Y0104105D01*
X0132188Y0102506D02*
X0140277Y0102506D01*
X0148675Y0105703D02*
X0149609Y0105703D01*
X0149925Y0107302D02*
X0148675Y0107302D01*
X0148675Y0108900D02*
X0149925Y0108900D01*
X0150030Y0110499D02*
X0148570Y0110499D01*
X0147764Y0112097D02*
X0150836Y0112097D01*
X0157764Y0112097D02*
X0160836Y0112097D01*
X0160030Y0110499D02*
X0158570Y0110499D01*
X0158675Y0108900D02*
X0159925Y0108900D01*
X0159925Y0107302D02*
X0158675Y0107302D01*
X0158675Y0105703D02*
X0159925Y0105703D01*
X0159925Y0104105D02*
X0158675Y0104105D01*
X0158323Y0102506D02*
X0160277Y0102506D01*
X0161431Y0100908D02*
X0157169Y0100908D01*
X0168675Y0105703D02*
X0169409Y0105703D01*
X0169925Y0107302D02*
X0168675Y0107302D01*
X0168675Y0108900D02*
X0169925Y0108900D01*
X0170030Y0110499D02*
X0168570Y0110499D01*
X0167764Y0112097D02*
X0170836Y0112097D01*
X0177764Y0112097D02*
X0180836Y0112097D01*
X0180030Y0110499D02*
X0178570Y0110499D01*
X0178675Y0108900D02*
X0179925Y0108900D01*
X0179925Y0107302D02*
X0178675Y0107302D01*
X0178675Y0105703D02*
X0179925Y0105703D01*
X0179925Y0104105D02*
X0178675Y0104105D01*
X0178323Y0102506D02*
X0180277Y0102506D01*
X0181431Y0100908D02*
X0177169Y0100908D01*
X0171431Y0100908D02*
X0171402Y0100908D01*
X0187169Y0100908D02*
X0191431Y0100908D01*
X0190277Y0102506D02*
X0188323Y0102506D01*
X0188675Y0104105D02*
X0189925Y0104105D01*
X0189925Y0105703D02*
X0188675Y0105703D01*
X0188675Y0107302D02*
X0189925Y0107302D01*
X0189925Y0108900D02*
X0188675Y0108900D01*
X0188570Y0110499D02*
X0190030Y0110499D01*
X0190836Y0112097D02*
X0187764Y0112097D01*
X0197764Y0112097D02*
X0200836Y0112097D01*
X0200030Y0110499D02*
X0198570Y0110499D01*
X0198675Y0108900D02*
X0199925Y0108900D01*
X0199925Y0107302D02*
X0198675Y0107302D01*
X0198675Y0105703D02*
X0199925Y0105703D01*
X0199925Y0104105D02*
X0198675Y0104105D01*
X0198323Y0102506D02*
X0200277Y0102506D01*
X0201431Y0100908D02*
X0197169Y0100908D01*
X0206422Y0118491D02*
X0149753Y0118491D01*
X0150902Y0120090D02*
X0205273Y0120090D01*
X0204925Y0121688D02*
X0151250Y0121688D01*
X0150994Y0123287D02*
X0205181Y0123287D01*
X0206198Y0124885D02*
X0149976Y0124885D01*
X0149353Y0128091D02*
X0147745Y0127425D01*
X0140855Y0127425D01*
X0139247Y0128091D01*
X0138016Y0129322D01*
X0137350Y0130930D01*
X0137350Y0132670D01*
X0138016Y0134278D01*
X0139247Y0135509D01*
X0140855Y0136175D01*
X0147745Y0136175D01*
X0149353Y0135509D01*
X0150584Y0134278D01*
X0151250Y0132670D01*
X0151250Y0130930D01*
X0150584Y0129322D01*
X0149353Y0128091D01*
X0149332Y0128082D02*
X0184355Y0128082D01*
X0183693Y0129681D02*
X0150732Y0129681D01*
X0151250Y0131279D02*
X0183500Y0131279D01*
X0183676Y0132878D02*
X0151164Y0132878D01*
X0150385Y0134476D02*
X0184338Y0134476D01*
X0185873Y0136075D02*
X0147986Y0136075D01*
X0147745Y0137425D02*
X0149353Y0138091D01*
X0150584Y0139322D01*
X0151250Y0140930D01*
X0151250Y0142670D01*
X0150584Y0144278D01*
X0149353Y0145509D01*
X0147745Y0146175D01*
X0140855Y0146175D01*
X0139247Y0145509D01*
X0138016Y0144278D01*
X0137350Y0142670D01*
X0137350Y0140930D01*
X0138016Y0139322D01*
X0139247Y0138091D01*
X0140855Y0137425D01*
X0147745Y0137425D01*
X0148344Y0137673D02*
X0185800Y0137673D01*
X0184333Y0139272D02*
X0150534Y0139272D01*
X0151225Y0140870D02*
X0183666Y0140870D01*
X0183776Y0144068D02*
X0150671Y0144068D01*
X0151250Y0142469D02*
X0189100Y0142469D01*
X0189500Y0142469D02*
X0196300Y0142469D01*
X0195100Y0142500D02*
X0195100Y0142756D01*
X0194957Y0143658D01*
X0194675Y0144526D01*
X0194261Y0145340D01*
X0193724Y0146078D01*
X0193078Y0146724D01*
X0192340Y0147261D01*
X0191526Y0147675D01*
X0190658Y0147957D01*
X0189756Y0148100D01*
X0189500Y0148100D01*
X0189500Y0142500D01*
X0195100Y0142500D01*
X0194824Y0144068D02*
X0196786Y0144068D01*
X0197888Y0145666D02*
X0194024Y0145666D01*
X0192332Y0147265D02*
X0200620Y0147265D01*
X0202980Y0147265D02*
X0220443Y0147265D01*
X0218843Y0148863D02*
X0144757Y0148863D01*
X0146343Y0150462D02*
X0217257Y0150462D01*
X0216900Y0152060D02*
X0146700Y0152060D01*
X0146700Y0153659D02*
X0216900Y0153659D01*
X0216900Y0155257D02*
X0146700Y0155257D01*
X0146700Y0156856D02*
X0216900Y0156856D01*
X0216900Y0158454D02*
X0146700Y0158454D01*
X0146700Y0160053D02*
X0152942Y0160053D01*
X0155658Y0160053D02*
X0162942Y0160053D01*
X0165658Y0160053D02*
X0172942Y0160053D01*
X0175658Y0160053D02*
X0182942Y0160053D01*
X0185658Y0160053D02*
X0192942Y0160053D01*
X0195658Y0160053D02*
X0202942Y0160053D01*
X0205658Y0160053D02*
X0212942Y0160053D01*
X0215658Y0160053D02*
X0216900Y0160053D01*
X0221700Y0160053D02*
X0222942Y0160053D01*
X0221700Y0158454D02*
X0258884Y0158454D01*
X0257714Y0160053D02*
X0255658Y0160053D01*
X0252942Y0160053D02*
X0245658Y0160053D01*
X0242942Y0160053D02*
X0235658Y0160053D01*
X0232942Y0160053D02*
X0225658Y0160053D01*
X0227913Y0161651D02*
X0230687Y0161651D01*
X0229969Y0163250D02*
X0228631Y0163250D01*
X0228675Y0164848D02*
X0229925Y0164848D01*
X0229925Y0166447D02*
X0228675Y0166447D01*
X0228675Y0168045D02*
X0229925Y0168045D01*
X0229925Y0169644D02*
X0228675Y0169644D01*
X0228262Y0171242D02*
X0230338Y0171242D01*
X0229582Y0172841D02*
X0227021Y0172841D01*
X0227984Y0174439D02*
X0221700Y0174439D01*
X0220956Y0176038D02*
X0226385Y0176038D01*
X0224787Y0177636D02*
X0219358Y0177636D01*
X0219200Y0179235D02*
X0223188Y0179235D01*
X0221635Y0180833D02*
X0219839Y0180833D01*
X0224674Y0181426D02*
X0224674Y0184300D01*
X0224674Y0181426D02*
X0231800Y0174300D01*
X0274300Y0174300D01*
X0274300Y0086800D01*
X0276100Y0084923D02*
X0277000Y0084923D01*
X0277000Y0086521D02*
X0276900Y0086521D01*
X0276900Y0088120D02*
X0277000Y0088120D01*
X0277000Y0089718D02*
X0276900Y0089718D01*
X0276900Y0091317D02*
X0277000Y0091317D01*
X0277000Y0092915D02*
X0276900Y0092915D01*
X0276900Y0094514D02*
X0277000Y0094514D01*
X0277000Y0096112D02*
X0276900Y0096112D01*
X0276900Y0097711D02*
X0277000Y0097711D01*
X0277000Y0099309D02*
X0276900Y0099309D01*
X0276900Y0100908D02*
X0277000Y0100908D01*
X0277000Y0102506D02*
X0276900Y0102506D01*
X0276900Y0104105D02*
X0277000Y0104105D01*
X0277000Y0105703D02*
X0276900Y0105703D01*
X0276900Y0107302D02*
X0277000Y0107302D01*
X0277000Y0108900D02*
X0276900Y0108900D01*
X0276900Y0110499D02*
X0277000Y0110499D01*
X0277000Y0112097D02*
X0276900Y0112097D01*
X0276900Y0113696D02*
X0277000Y0113696D01*
X0277000Y0115294D02*
X0276900Y0115294D01*
X0276900Y0116893D02*
X0277000Y0116893D01*
X0277000Y0118491D02*
X0276900Y0118491D01*
X0276900Y0120090D02*
X0277000Y0120090D01*
X0277000Y0121688D02*
X0276900Y0121688D01*
X0276900Y0123287D02*
X0277000Y0123287D01*
X0277000Y0124885D02*
X0276900Y0124885D01*
X0276900Y0126484D02*
X0277000Y0126484D01*
X0277000Y0128082D02*
X0276900Y0128082D01*
X0276900Y0129681D02*
X0277000Y0129681D01*
X0277000Y0131279D02*
X0276900Y0131279D01*
X0276900Y0132878D02*
X0277000Y0132878D01*
X0277000Y0134476D02*
X0276900Y0134476D01*
X0276900Y0136075D02*
X0277000Y0136075D01*
X0277000Y0137673D02*
X0276900Y0137673D01*
X0276900Y0139272D02*
X0277000Y0139272D01*
X0277000Y0140870D02*
X0276900Y0140870D01*
X0276900Y0142469D02*
X0277000Y0142469D01*
X0277000Y0144068D02*
X0276900Y0144068D01*
X0276900Y0145666D02*
X0277000Y0145666D01*
X0277000Y0147265D02*
X0276900Y0147265D01*
X0276900Y0148863D02*
X0277000Y0148863D01*
X0277000Y0150462D02*
X0276900Y0150462D01*
X0276900Y0152060D02*
X0277000Y0152060D01*
X0277000Y0153659D02*
X0276900Y0153659D01*
X0276900Y0155257D02*
X0277000Y0155257D01*
X0277000Y0156856D02*
X0276900Y0156856D01*
X0276900Y0158454D02*
X0277000Y0158454D01*
X0277000Y0160053D02*
X0276900Y0160053D01*
X0276900Y0161651D02*
X0277000Y0161651D01*
X0277000Y0163250D02*
X0276900Y0163250D01*
X0276900Y0164848D02*
X0277000Y0164848D01*
X0277000Y0166447D02*
X0276900Y0166447D01*
X0276900Y0168045D02*
X0277000Y0168045D01*
X0277000Y0169644D02*
X0276900Y0169644D01*
X0276900Y0171242D02*
X0277000Y0171242D01*
X0277000Y0172841D02*
X0276900Y0172841D01*
X0276900Y0174439D02*
X0277000Y0174439D01*
X0271700Y0171242D02*
X0258262Y0171242D01*
X0258675Y0169644D02*
X0271700Y0169644D01*
X0271700Y0168045D02*
X0258675Y0168045D01*
X0258675Y0166447D02*
X0271700Y0166447D01*
X0271700Y0164848D02*
X0270014Y0164848D01*
X0271010Y0163250D02*
X0271700Y0163250D01*
X0271700Y0161651D02*
X0271250Y0161651D01*
X0270886Y0160053D02*
X0271700Y0160053D01*
X0271700Y0158454D02*
X0269716Y0158454D01*
X0271700Y0156856D02*
X0221700Y0156856D01*
X0221700Y0155257D02*
X0258995Y0155257D01*
X0259247Y0155509D02*
X0258016Y0154278D01*
X0257350Y0152670D01*
X0257350Y0150930D01*
X0258016Y0149322D01*
X0259247Y0148091D01*
X0260855Y0147425D01*
X0267745Y0147425D01*
X0269353Y0148091D01*
X0270584Y0149322D01*
X0271250Y0150930D01*
X0271250Y0152670D01*
X0270584Y0154278D01*
X0269353Y0155509D01*
X0267745Y0156175D01*
X0260855Y0156175D01*
X0259247Y0155509D01*
X0257760Y0153659D02*
X0221700Y0153659D01*
X0222434Y0152060D02*
X0257350Y0152060D01*
X0257544Y0150462D02*
X0239033Y0150462D01*
X0240631Y0148863D02*
X0258475Y0148863D01*
X0259627Y0145666D02*
X0241700Y0145666D01*
X0241700Y0144068D02*
X0257929Y0144068D01*
X0258016Y0144278D02*
X0257350Y0142670D01*
X0257350Y0140930D01*
X0258016Y0139322D01*
X0259247Y0138091D01*
X0260855Y0137425D01*
X0267745Y0137425D01*
X0269353Y0138091D01*
X0270584Y0139322D01*
X0271250Y0140930D01*
X0271250Y0142670D01*
X0270584Y0144278D01*
X0269353Y0145509D01*
X0267745Y0146175D01*
X0260855Y0146175D01*
X0259247Y0145509D01*
X0258016Y0144278D01*
X0257350Y0142469D02*
X0241700Y0142469D01*
X0241700Y0140870D02*
X0257375Y0140870D01*
X0258066Y0139272D02*
X0241700Y0139272D01*
X0241700Y0137673D02*
X0260256Y0137673D01*
X0260855Y0136175D02*
X0259247Y0135509D01*
X0258016Y0134278D01*
X0257350Y0132670D01*
X0257350Y0130930D01*
X0258016Y0129322D01*
X0259247Y0128091D01*
X0260855Y0127425D01*
X0267745Y0127425D01*
X0269353Y0128091D01*
X0270584Y0129322D01*
X0271250Y0130930D01*
X0271250Y0132670D01*
X0270584Y0134278D01*
X0269353Y0135509D01*
X0267745Y0136175D01*
X0260855Y0136175D01*
X0260614Y0136075D02*
X0242803Y0136075D01*
X0244145Y0134476D02*
X0258215Y0134476D01*
X0257436Y0132878D02*
X0254116Y0132878D01*
X0255715Y0131279D02*
X0257350Y0131279D01*
X0257868Y0129681D02*
X0256700Y0129681D01*
X0256700Y0128082D02*
X0259268Y0128082D01*
X0260046Y0125854D02*
X0259432Y0125542D01*
X0258875Y0125137D01*
X0258388Y0124650D01*
X0257984Y0124093D01*
X0257671Y0123479D01*
X0257458Y0122824D01*
X0257350Y0122144D01*
X0257350Y0121800D01*
X0264300Y0121800D01*
X0264300Y0121800D01*
X0264300Y0126175D01*
X0267219Y0126175D01*
X0267899Y0126067D01*
X0268554Y0125854D01*
X0269168Y0125542D01*
X0269725Y0125137D01*
X0270212Y0124650D01*
X0270616Y0124093D01*
X0270929Y0123479D01*
X0271142Y0122824D01*
X0271250Y0122144D01*
X0271250Y0121800D01*
X0264300Y0121800D01*
X0264300Y0121800D01*
X0264300Y0117425D01*
X0267219Y0117425D01*
X0267899Y0117533D01*
X0268554Y0117746D01*
X0269168Y0118058D01*
X0269725Y0118463D01*
X0270212Y0118950D01*
X0270616Y0119507D01*
X0270929Y0120121D01*
X0271142Y0120776D01*
X0271250Y0121456D01*
X0271250Y0121800D01*
X0264300Y0121800D01*
X0264300Y0121800D01*
X0264300Y0121800D01*
X0264300Y0126175D01*
X0261381Y0126175D01*
X0260701Y0126067D01*
X0260046Y0125854D01*
X0258624Y0124885D02*
X0256700Y0124885D01*
X0256700Y0123287D02*
X0257608Y0123287D01*
X0257350Y0121800D02*
X0257350Y0121456D01*
X0257458Y0120776D01*
X0257671Y0120121D01*
X0257984Y0119507D01*
X0258388Y0118950D01*
X0258875Y0118463D01*
X0259432Y0118058D01*
X0260046Y0117746D01*
X0260701Y0117533D01*
X0261381Y0117425D01*
X0264300Y0117425D01*
X0264300Y0121800D01*
X0257350Y0121800D01*
X0257350Y0121688D02*
X0256700Y0121688D01*
X0256700Y0120090D02*
X0257687Y0120090D01*
X0256700Y0118491D02*
X0258847Y0118491D01*
X0256700Y0116893D02*
X0271700Y0116893D01*
X0271700Y0118491D02*
X0269753Y0118491D01*
X0270913Y0120090D02*
X0271700Y0120090D01*
X0271700Y0121688D02*
X0271250Y0121688D01*
X0270992Y0123287D02*
X0271700Y0123287D01*
X0271700Y0124885D02*
X0269976Y0124885D01*
X0271700Y0126484D02*
X0256700Y0126484D01*
X0251900Y0126484D02*
X0240838Y0126484D01*
X0243361Y0128082D02*
X0251900Y0128082D01*
X0264300Y0124885D02*
X0264300Y0124885D01*
X0264300Y0123287D02*
X0264300Y0123287D01*
X0264300Y0121688D02*
X0264300Y0121688D01*
X0264300Y0120090D02*
X0264300Y0120090D01*
X0264300Y0118491D02*
X0264300Y0118491D01*
X0264300Y0115294D02*
X0264300Y0115294D01*
X0264300Y0113696D02*
X0264300Y0113696D01*
X0264300Y0112097D02*
X0264300Y0112097D01*
X0264300Y0111800D02*
X0264300Y0107425D01*
X0264300Y0111800D01*
X0264300Y0111800D01*
X0264300Y0110499D02*
X0264300Y0110499D01*
X0264300Y0108900D02*
X0264300Y0108900D01*
X0258675Y0107302D02*
X0271700Y0107302D01*
X0271700Y0108900D02*
X0270162Y0108900D01*
X0271052Y0110499D02*
X0271700Y0110499D01*
X0271700Y0112097D02*
X0271250Y0112097D01*
X0270819Y0113696D02*
X0271700Y0113696D01*
X0271700Y0115294D02*
X0269508Y0115294D01*
X0259092Y0115294D02*
X0256700Y0115294D01*
X0256700Y0113696D02*
X0257781Y0113696D01*
X0250836Y0112097D02*
X0247730Y0112097D01*
X0248535Y0110499D02*
X0250030Y0110499D01*
X0249925Y0108900D02*
X0248675Y0108900D01*
X0248675Y0107302D02*
X0249925Y0107302D01*
X0248675Y0106800D02*
X0244300Y0106800D01*
X0244300Y0099850D01*
X0244300Y0106800D01*
X0244300Y0106800D01*
X0244300Y0106800D01*
X0239925Y0106800D01*
X0239925Y0103881D01*
X0240033Y0103201D01*
X0240246Y0102546D01*
X0240558Y0101932D01*
X0240963Y0101375D01*
X0241450Y0100888D01*
X0242007Y0100484D01*
X0242621Y0100171D01*
X0243276Y0099958D01*
X0243956Y0099850D01*
X0244300Y0099850D01*
X0244644Y0099850D01*
X0245324Y0099958D01*
X0245979Y0100171D01*
X0246593Y0100484D01*
X0247150Y0100888D01*
X0247637Y0101375D01*
X0248042Y0101932D01*
X0248354Y0102546D01*
X0248567Y0103201D01*
X0248675Y0103881D01*
X0248675Y0106800D01*
X0248675Y0105703D02*
X0249925Y0105703D01*
X0249925Y0104105D02*
X0248675Y0104105D01*
X0248334Y0102506D02*
X0250277Y0102506D01*
X0251431Y0100908D02*
X0247169Y0100908D01*
X0244300Y0100908D02*
X0244300Y0100908D01*
X0244300Y0102506D02*
X0244300Y0102506D01*
X0244300Y0104105D02*
X0244300Y0104105D01*
X0244300Y0105703D02*
X0244300Y0105703D01*
X0244300Y0107302D02*
X0244300Y0107302D01*
X0244300Y0108900D02*
X0244300Y0108900D01*
X0244300Y0110499D02*
X0244300Y0110499D01*
X0244300Y0112097D02*
X0244300Y0112097D01*
X0240870Y0112097D02*
X0237764Y0112097D01*
X0238570Y0110499D02*
X0240065Y0110499D01*
X0239925Y0108900D02*
X0238675Y0108900D01*
X0238675Y0107302D02*
X0239925Y0107302D01*
X0239925Y0105703D02*
X0238675Y0105703D01*
X0238675Y0104105D02*
X0239925Y0104105D01*
X0240266Y0102506D02*
X0238323Y0102506D01*
X0237169Y0100908D02*
X0241431Y0100908D01*
X0231431Y0100908D02*
X0227169Y0100908D01*
X0228323Y0102506D02*
X0230277Y0102506D01*
X0229925Y0104105D02*
X0228675Y0104105D01*
X0228675Y0105703D02*
X0229925Y0105703D01*
X0229925Y0107302D02*
X0228675Y0107302D01*
X0228675Y0108900D02*
X0229925Y0108900D01*
X0230030Y0110499D02*
X0228570Y0110499D01*
X0227764Y0112097D02*
X0230836Y0112097D01*
X0237762Y0126484D02*
X0216500Y0126484D01*
X0216332Y0128082D02*
X0235239Y0128082D01*
X0234225Y0129681D02*
X0215013Y0129681D01*
X0214800Y0131279D02*
X0233800Y0131279D01*
X0233800Y0132878D02*
X0214800Y0132878D01*
X0214145Y0134476D02*
X0234455Y0134476D01*
X0235797Y0136075D02*
X0212803Y0136075D01*
X0206706Y0139272D02*
X0226915Y0139272D01*
X0227096Y0138917D02*
X0227605Y0138217D01*
X0228217Y0137605D01*
X0228917Y0137096D01*
X0229689Y0136703D01*
X0230512Y0136435D01*
X0231367Y0136300D01*
X0231714Y0136300D01*
X0231714Y0141714D01*
X0226300Y0141714D01*
X0226300Y0141367D01*
X0226435Y0140512D01*
X0226703Y0139689D01*
X0227096Y0138917D01*
X0228148Y0137673D02*
X0205452Y0137673D01*
X0205797Y0136075D02*
X0204200Y0136075D01*
X0204200Y0134476D02*
X0204455Y0134476D01*
X0199400Y0134476D02*
X0194262Y0134476D01*
X0192727Y0136075D02*
X0199400Y0136075D01*
X0198148Y0137673D02*
X0192800Y0137673D01*
X0194267Y0139272D02*
X0196894Y0139272D01*
X0196300Y0140870D02*
X0194934Y0140870D01*
X0189500Y0144068D02*
X0189100Y0144068D01*
X0189100Y0145666D02*
X0189500Y0145666D01*
X0189500Y0147265D02*
X0189100Y0147265D01*
X0186268Y0147265D02*
X0143157Y0147265D01*
X0139627Y0145666D02*
X0136560Y0145666D01*
X0137929Y0144068D02*
X0134962Y0144068D01*
X0133363Y0142469D02*
X0137350Y0142469D01*
X0137375Y0140870D02*
X0126824Y0140870D01*
X0128422Y0139272D02*
X0138066Y0139272D01*
X0140256Y0137673D02*
X0129560Y0137673D01*
X0129600Y0136075D02*
X0140614Y0136075D01*
X0138215Y0134476D02*
X0129600Y0134476D01*
X0129600Y0132878D02*
X0137436Y0132878D01*
X0137350Y0131279D02*
X0129600Y0131279D01*
X0130313Y0129681D02*
X0137868Y0129681D01*
X0139268Y0128082D02*
X0131912Y0128082D01*
X0133510Y0126484D02*
X0185914Y0126484D01*
X0192686Y0126484D02*
X0207762Y0126484D01*
X0205239Y0128082D02*
X0194245Y0128082D01*
X0210838Y0126484D02*
X0211422Y0126484D01*
X0207300Y0140870D02*
X0226379Y0140870D01*
X0226337Y0142469D02*
X0207300Y0142469D01*
X0206814Y0144068D02*
X0226783Y0144068D01*
X0227888Y0145666D02*
X0205712Y0145666D01*
X0207913Y0161651D02*
X0210687Y0161651D01*
X0209969Y0163250D02*
X0208631Y0163250D01*
X0208675Y0164848D02*
X0209925Y0164848D01*
X0209925Y0166447D02*
X0208675Y0166447D01*
X0208675Y0168045D02*
X0209925Y0168045D01*
X0209925Y0169644D02*
X0208675Y0169644D01*
X0208262Y0171242D02*
X0210338Y0171242D01*
X0211579Y0172841D02*
X0207021Y0172841D01*
X0201579Y0172841D02*
X0201553Y0172841D01*
X0199955Y0174439D02*
X0215767Y0174439D01*
X0214518Y0176038D02*
X0198356Y0176038D01*
X0199255Y0177500D02*
X0196550Y0177500D01*
X0194050Y0178535D01*
X0192138Y0180448D01*
X0191102Y0182947D01*
X0191102Y0185653D01*
X0192138Y0188152D01*
X0194050Y0190065D01*
X0196550Y0191100D01*
X0199255Y0191100D01*
X0201754Y0190065D01*
X0203667Y0188152D01*
X0204702Y0185653D01*
X0204702Y0182947D01*
X0203667Y0180448D01*
X0201754Y0178535D01*
X0199255Y0177500D01*
X0199584Y0177636D02*
X0214400Y0177636D01*
X0214400Y0179235D02*
X0202454Y0179235D01*
X0203827Y0180833D02*
X0206281Y0180833D01*
X0205115Y0182432D02*
X0204489Y0182432D01*
X0204702Y0184030D02*
X0204720Y0184030D01*
X0204702Y0185629D02*
X0204891Y0185629D01*
X0204050Y0187227D02*
X0205742Y0187227D01*
X0208226Y0188826D02*
X0202993Y0188826D01*
X0200886Y0190424D02*
X0232714Y0190424D01*
X0230607Y0188826D02*
X0225768Y0188826D01*
X0223580Y0188826D02*
X0217894Y0188826D01*
X0215706Y0188826D02*
X0210414Y0188826D01*
X0212898Y0187227D02*
X0213222Y0187227D01*
X0220378Y0187227D02*
X0221096Y0187227D01*
X0228252Y0187227D02*
X0229550Y0187227D01*
X0229111Y0182432D02*
X0228879Y0182432D01*
X0228944Y0180833D02*
X0229773Y0180833D01*
X0230542Y0179235D02*
X0231146Y0179235D01*
X0232141Y0177636D02*
X0234016Y0177636D01*
X0237379Y0177636D02*
X0263569Y0177636D01*
X0261970Y0179235D02*
X0240249Y0179235D01*
X0241622Y0180833D02*
X0261042Y0180833D01*
X0260237Y0182432D02*
X0242284Y0182432D01*
X0242498Y0184030D02*
X0259808Y0184030D01*
X0259500Y0185629D02*
X0242498Y0185629D01*
X0241845Y0187227D02*
X0259500Y0187227D01*
X0259609Y0188826D02*
X0240788Y0188826D01*
X0238681Y0190424D02*
X0260037Y0190424D01*
X0260613Y0192023D02*
X0027987Y0192023D01*
X0028563Y0190424D02*
X0194919Y0190424D01*
X0192812Y0188826D02*
X0186562Y0188826D01*
X0186288Y0189100D02*
X0182312Y0189100D01*
X0179500Y0186288D01*
X0179500Y0182312D01*
X0182312Y0179500D01*
X0186288Y0179500D01*
X0189100Y0182312D01*
X0189100Y0186288D01*
X0186288Y0189100D01*
X0188161Y0187227D02*
X0191755Y0187227D01*
X0191102Y0185629D02*
X0189100Y0185629D01*
X0189100Y0184030D02*
X0191102Y0184030D01*
X0191316Y0182432D02*
X0189100Y0182432D01*
X0187621Y0180833D02*
X0191978Y0180833D01*
X0193351Y0179235D02*
X0026630Y0179235D01*
X0027558Y0180833D02*
X0130979Y0180833D01*
X0132312Y0179500D02*
X0129500Y0182312D01*
X0129500Y0184100D01*
X0134100Y0184100D01*
X0134100Y0184500D01*
X0134100Y0189100D01*
X0132312Y0189100D01*
X0129500Y0186288D01*
X0129500Y0184500D01*
X0134100Y0184500D01*
X0134500Y0184500D01*
X0134500Y0189100D01*
X0136288Y0189100D01*
X0139100Y0186288D01*
X0139100Y0184500D01*
X0134500Y0184500D01*
X0134500Y0184100D01*
X0139100Y0184100D01*
X0139100Y0182312D01*
X0136288Y0179500D01*
X0134500Y0179500D01*
X0134500Y0184100D01*
X0134100Y0184100D01*
X0134100Y0179500D01*
X0132312Y0179500D01*
X0134100Y0180833D02*
X0134500Y0180833D01*
X0134500Y0182432D02*
X0134100Y0182432D01*
X0134100Y0184030D02*
X0134500Y0184030D01*
X0134500Y0185629D02*
X0134100Y0185629D01*
X0134100Y0187227D02*
X0134500Y0187227D01*
X0134500Y0188826D02*
X0134100Y0188826D01*
X0132038Y0188826D02*
X0028991Y0188826D01*
X0029100Y0187227D02*
X0130439Y0187227D01*
X0129500Y0185629D02*
X0029100Y0185629D01*
X0028792Y0184030D02*
X0129500Y0184030D01*
X0129500Y0182432D02*
X0028363Y0182432D01*
X0025031Y0177636D02*
X0196221Y0177636D01*
X0190338Y0171242D02*
X0188262Y0171242D01*
X0188675Y0169644D02*
X0189925Y0169644D01*
X0189925Y0168045D02*
X0188675Y0168045D01*
X0188675Y0166447D02*
X0189925Y0166447D01*
X0189925Y0164848D02*
X0188675Y0164848D01*
X0188631Y0163250D02*
X0189969Y0163250D01*
X0190687Y0161651D02*
X0187913Y0161651D01*
X0180687Y0161651D02*
X0177913Y0161651D01*
X0178631Y0163250D02*
X0179969Y0163250D01*
X0179925Y0164848D02*
X0178675Y0164848D01*
X0178675Y0166447D02*
X0179925Y0166447D01*
X0179925Y0168045D02*
X0178675Y0168045D01*
X0178675Y0169644D02*
X0179925Y0169644D01*
X0180338Y0171242D02*
X0178262Y0171242D01*
X0170338Y0171242D02*
X0168262Y0171242D01*
X0168675Y0169644D02*
X0169925Y0169644D01*
X0169925Y0168045D02*
X0168675Y0168045D01*
X0168675Y0166447D02*
X0169925Y0166447D01*
X0169925Y0164848D02*
X0168675Y0164848D01*
X0168631Y0163250D02*
X0169969Y0163250D01*
X0170687Y0161651D02*
X0167913Y0161651D01*
X0160687Y0161651D02*
X0157913Y0161651D01*
X0158631Y0163250D02*
X0159969Y0163250D01*
X0159925Y0164848D02*
X0158675Y0164848D01*
X0158675Y0166447D02*
X0159925Y0166447D01*
X0159925Y0168045D02*
X0158675Y0168045D01*
X0158675Y0169644D02*
X0159925Y0169644D01*
X0160338Y0171242D02*
X0158262Y0171242D01*
X0150338Y0171242D02*
X0148262Y0171242D01*
X0148675Y0169644D02*
X0149925Y0169644D01*
X0149925Y0168045D02*
X0148675Y0168045D01*
X0148675Y0166447D02*
X0149925Y0166447D01*
X0149925Y0164848D02*
X0148675Y0164848D01*
X0148631Y0163250D02*
X0149969Y0163250D01*
X0150687Y0161651D02*
X0147913Y0161651D01*
X0148973Y0145666D02*
X0184576Y0145666D01*
X0197913Y0161651D02*
X0200687Y0161651D01*
X0199969Y0163250D02*
X0198631Y0163250D01*
X0198675Y0164848D02*
X0199925Y0164848D01*
X0199925Y0166447D02*
X0198675Y0166447D01*
X0198675Y0168045D02*
X0199561Y0168045D01*
X0212358Y0180833D02*
X0213761Y0180833D01*
X0238262Y0171242D02*
X0240338Y0171242D01*
X0239925Y0169644D02*
X0238675Y0169644D01*
X0238675Y0168045D02*
X0239925Y0168045D01*
X0239925Y0166447D02*
X0238675Y0166447D01*
X0238675Y0164848D02*
X0239925Y0164848D01*
X0239969Y0163250D02*
X0238631Y0163250D01*
X0237913Y0161651D02*
X0240687Y0161651D01*
X0247913Y0161651D02*
X0250687Y0161651D01*
X0249969Y0163250D02*
X0248631Y0163250D01*
X0248675Y0164848D02*
X0249925Y0164848D01*
X0249925Y0166447D02*
X0248675Y0166447D01*
X0248675Y0168045D02*
X0249925Y0168045D01*
X0249925Y0169644D02*
X0248675Y0169644D01*
X0248262Y0171242D02*
X0250338Y0171242D01*
X0269605Y0155257D02*
X0271700Y0155257D01*
X0271700Y0153659D02*
X0270840Y0153659D01*
X0271250Y0152060D02*
X0271700Y0152060D01*
X0271700Y0150462D02*
X0271056Y0150462D01*
X0271700Y0148863D02*
X0270125Y0148863D01*
X0271700Y0147265D02*
X0241700Y0147265D01*
X0236900Y0139272D02*
X0236685Y0139272D01*
X0236900Y0137673D02*
X0235452Y0137673D01*
X0231886Y0137673D02*
X0231714Y0137673D01*
X0231714Y0139272D02*
X0231886Y0139272D01*
X0231886Y0140870D02*
X0231714Y0140870D01*
X0267986Y0136075D02*
X0271700Y0136075D01*
X0271700Y0137673D02*
X0268344Y0137673D01*
X0270534Y0139272D02*
X0271700Y0139272D01*
X0271700Y0140870D02*
X0271225Y0140870D01*
X0271250Y0142469D02*
X0271700Y0142469D01*
X0271700Y0144068D02*
X0270671Y0144068D01*
X0271700Y0145666D02*
X0268973Y0145666D01*
X0270385Y0134476D02*
X0271700Y0134476D01*
X0271700Y0132878D02*
X0271164Y0132878D01*
X0271250Y0131279D02*
X0271700Y0131279D01*
X0271700Y0129681D02*
X0270732Y0129681D01*
X0271700Y0128082D02*
X0269332Y0128082D01*
X0271700Y0105703D02*
X0258675Y0105703D01*
X0258675Y0104105D02*
X0271700Y0104105D01*
X0271700Y0102506D02*
X0258323Y0102506D01*
X0257169Y0100908D02*
X0271700Y0100908D01*
X0264745Y0084923D02*
X0006600Y0084923D01*
X0006600Y0083324D02*
X0262366Y0083324D01*
X0261331Y0081726D02*
X0006600Y0081726D01*
X0006600Y0080127D02*
X0260819Y0080127D01*
X0260819Y0078529D02*
X0006600Y0078529D01*
X0006600Y0076930D02*
X0261308Y0076930D01*
X0262310Y0075332D02*
X0006600Y0075332D01*
X0008178Y0054551D02*
X0016325Y0054551D01*
X0015035Y0052952D02*
X0008178Y0052952D01*
X0008178Y0051354D02*
X0014324Y0051354D01*
X0014101Y0048157D02*
X0008178Y0048157D01*
X0008178Y0049755D02*
X0020417Y0049755D01*
X0020417Y0048157D02*
X0022017Y0048157D01*
X0022017Y0049755D02*
X0056663Y0049755D01*
X0056663Y0048157D02*
X0028334Y0048157D01*
X0028110Y0051354D02*
X0056663Y0051354D01*
X0056663Y0052952D02*
X0051369Y0052952D01*
X0053257Y0054551D02*
X0056663Y0054551D01*
X0056663Y0056149D02*
X0054289Y0056149D01*
X0054951Y0057748D02*
X0056663Y0057748D01*
X0056663Y0059346D02*
X0054984Y0059346D01*
X0054880Y0060945D02*
X0056663Y0060945D01*
X0056663Y0062543D02*
X0054218Y0062543D01*
X0053085Y0064142D02*
X0056663Y0064142D01*
X0056663Y0065740D02*
X0050955Y0065740D01*
X0041703Y0043361D02*
X0025356Y0043361D01*
X0022017Y0043361D02*
X0020417Y0043361D01*
X0020417Y0044960D02*
X0022017Y0044960D01*
X0022017Y0046558D02*
X0020417Y0046558D01*
X0017078Y0043361D02*
X0008178Y0043361D01*
X0008178Y0041763D02*
X0041027Y0041763D01*
X0040584Y0040164D02*
X0008178Y0040164D01*
X0008178Y0038566D02*
X0040584Y0038566D01*
X0040941Y0036967D02*
X0008178Y0036967D01*
X0008178Y0035369D02*
X0041603Y0035369D01*
X0043092Y0033770D02*
X0008178Y0033770D01*
X0008178Y0044960D02*
X0015442Y0044960D01*
X0014543Y0046558D02*
X0008178Y0046558D01*
X0020417Y0051354D02*
X0022017Y0051354D01*
X0022017Y0052952D02*
X0020417Y0052952D01*
X0020417Y0054551D02*
X0022017Y0054551D01*
X0086880Y0105703D02*
X0101303Y0105703D01*
X0099704Y0107302D02*
X0088479Y0107302D01*
X0089400Y0108900D02*
X0098106Y0108900D01*
X0096507Y0110499D02*
X0089400Y0110499D01*
X0089819Y0112097D02*
X0094909Y0112097D01*
X0093310Y0113696D02*
X0091467Y0113696D01*
X0107600Y0118781D02*
X0107600Y0131979D01*
X0107757Y0131599D01*
X0109099Y0130257D01*
X0109400Y0130133D01*
X0109400Y0124523D01*
X0109765Y0123641D01*
X0113943Y0119463D01*
X0113526Y0119675D01*
X0112658Y0119957D01*
X0111756Y0120100D01*
X0111500Y0120100D01*
X0111500Y0114500D01*
X0111100Y0114500D01*
X0111100Y0120100D01*
X0110844Y0120100D01*
X0109942Y0119957D01*
X0109074Y0119675D01*
X0108260Y0119261D01*
X0107600Y0118781D01*
X0107600Y0120090D02*
X0110779Y0120090D01*
X0111100Y0120090D02*
X0111500Y0120090D01*
X0111821Y0120090D02*
X0113316Y0120090D01*
X0111718Y0121688D02*
X0107600Y0121688D01*
X0107600Y0123287D02*
X0110119Y0123287D01*
X0109400Y0124885D02*
X0107600Y0124885D01*
X0107600Y0126484D02*
X0109400Y0126484D01*
X0109400Y0128082D02*
X0107600Y0128082D01*
X0107600Y0129681D02*
X0109400Y0129681D01*
X0108077Y0131279D02*
X0107600Y0131279D01*
X0114200Y0129681D02*
X0118090Y0129681D01*
X0118137Y0129654D02*
X0118595Y0129531D01*
X0121616Y0129531D01*
X0121616Y0134116D01*
X0117031Y0134116D01*
X0117031Y0131095D01*
X0117154Y0130637D01*
X0117391Y0130226D01*
X0117726Y0129891D01*
X0118137Y0129654D01*
X0117031Y0131279D02*
X0115523Y0131279D01*
X0116372Y0132878D02*
X0117031Y0132878D01*
X0116568Y0134476D02*
X0121616Y0134476D01*
X0121616Y0132878D02*
X0121984Y0132878D01*
X0121984Y0131279D02*
X0121616Y0131279D01*
X0121616Y0129681D02*
X0121984Y0129681D01*
X0125148Y0128082D02*
X0114200Y0128082D01*
X0114200Y0126484D02*
X0126722Y0126484D01*
X0128321Y0124885D02*
X0115309Y0124885D01*
X0116907Y0123287D02*
X0129919Y0123287D01*
X0131518Y0121688D02*
X0118506Y0121688D01*
X0120104Y0120090D02*
X0121122Y0120090D01*
X0123478Y0120090D02*
X0133116Y0120090D01*
X0134715Y0118491D02*
X0126311Y0118491D01*
X0127504Y0116893D02*
X0136313Y0116893D01*
X0137912Y0115294D02*
X0128100Y0115294D01*
X0136707Y0123287D02*
X0137606Y0123287D01*
X0138624Y0124885D02*
X0135109Y0124885D01*
X0117031Y0136075D02*
X0116226Y0136075D01*
X0096779Y0137673D02*
X0006600Y0137673D01*
X0006600Y0136075D02*
X0095181Y0136075D01*
X0093582Y0134476D02*
X0006600Y0134476D01*
X0006600Y0132878D02*
X0091984Y0132878D01*
X0090385Y0131279D02*
X0006600Y0131279D01*
X0006600Y0129681D02*
X0088787Y0129681D01*
X0096900Y0139272D02*
X0006600Y0139272D01*
X0006600Y0140870D02*
X0096900Y0140870D01*
X0096900Y0142469D02*
X0006600Y0142469D01*
X0006600Y0144068D02*
X0096900Y0144068D01*
X0096900Y0145666D02*
X0006600Y0145666D01*
X0006600Y0147265D02*
X0096900Y0147265D01*
X0096900Y0148863D02*
X0006600Y0148863D01*
X0006600Y0150462D02*
X0096900Y0150462D01*
X0096900Y0152060D02*
X0006600Y0152060D01*
X0006600Y0153659D02*
X0096900Y0153659D01*
X0096900Y0155257D02*
X0006600Y0155257D01*
X0006600Y0156856D02*
X0096900Y0156856D01*
X0096900Y0158454D02*
X0006600Y0158454D01*
X0006600Y0160053D02*
X0096900Y0160053D01*
X0096900Y0161651D02*
X0006600Y0161651D01*
X0006600Y0163250D02*
X0096900Y0163250D01*
X0096900Y0164848D02*
X0006600Y0164848D01*
X0006600Y0166447D02*
X0096900Y0166447D01*
X0096900Y0168045D02*
X0006600Y0168045D01*
X0006600Y0169644D02*
X0096900Y0169644D01*
X0096900Y0171242D02*
X0006600Y0171242D01*
X0006600Y0172841D02*
X0097133Y0172841D01*
X0098545Y0174439D02*
X0006600Y0174439D01*
X0006600Y0176038D02*
X0010841Y0176038D01*
X0008569Y0177636D02*
X0006600Y0177636D01*
X0006600Y0179235D02*
X0006970Y0179235D01*
X0022759Y0176038D02*
X0100144Y0176038D01*
X0137621Y0180833D02*
X0140979Y0180833D01*
X0142312Y0179500D02*
X0139500Y0182312D01*
X0139500Y0184100D01*
X0144100Y0184100D01*
X0144100Y0184500D01*
X0144100Y0189100D01*
X0142312Y0189100D01*
X0139500Y0186288D01*
X0139500Y0184500D01*
X0144100Y0184500D01*
X0144500Y0184500D01*
X0144500Y0189100D01*
X0146288Y0189100D01*
X0149100Y0186288D01*
X0149100Y0184500D01*
X0144500Y0184500D01*
X0144500Y0184100D01*
X0149100Y0184100D01*
X0149100Y0182312D01*
X0146288Y0179500D01*
X0144500Y0179500D01*
X0144500Y0184100D01*
X0144100Y0184100D01*
X0144100Y0179500D01*
X0142312Y0179500D01*
X0144100Y0180833D02*
X0144500Y0180833D01*
X0144500Y0182432D02*
X0144100Y0182432D01*
X0144100Y0184030D02*
X0144500Y0184030D01*
X0144500Y0185629D02*
X0144100Y0185629D01*
X0144100Y0187227D02*
X0144500Y0187227D01*
X0144500Y0188826D02*
X0144100Y0188826D01*
X0142038Y0188826D02*
X0136562Y0188826D01*
X0138161Y0187227D02*
X0140439Y0187227D01*
X0139500Y0185629D02*
X0139100Y0185629D01*
X0139100Y0184030D02*
X0139500Y0184030D01*
X0139500Y0182432D02*
X0139100Y0182432D01*
X0147621Y0180833D02*
X0150979Y0180833D01*
X0152312Y0179500D02*
X0156288Y0179500D01*
X0159100Y0182312D01*
X0159100Y0186288D01*
X0156288Y0189100D01*
X0152312Y0189100D01*
X0149500Y0186288D01*
X0149500Y0182312D01*
X0152312Y0179500D01*
X0149500Y0182432D02*
X0149100Y0182432D01*
X0149100Y0184030D02*
X0149500Y0184030D01*
X0149500Y0185629D02*
X0149100Y0185629D01*
X0148161Y0187227D02*
X0150439Y0187227D01*
X0152038Y0188826D02*
X0146562Y0188826D01*
X0156562Y0188826D02*
X0162038Y0188826D01*
X0162312Y0189100D02*
X0159500Y0186288D01*
X0159500Y0182312D01*
X0162312Y0179500D01*
X0166288Y0179500D01*
X0169100Y0182312D01*
X0169100Y0186288D01*
X0166288Y0189100D01*
X0162312Y0189100D01*
X0160439Y0187227D02*
X0158161Y0187227D01*
X0159100Y0185629D02*
X0159500Y0185629D01*
X0159500Y0184030D02*
X0159100Y0184030D01*
X0159100Y0182432D02*
X0159500Y0182432D01*
X0160979Y0180833D02*
X0157621Y0180833D01*
X0167621Y0180833D02*
X0170979Y0180833D01*
X0172312Y0179500D02*
X0176288Y0179500D01*
X0179100Y0182312D01*
X0179100Y0186288D01*
X0176288Y0189100D01*
X0172312Y0189100D01*
X0169500Y0186288D01*
X0169500Y0182312D01*
X0172312Y0179500D01*
X0169500Y0182432D02*
X0169100Y0182432D01*
X0169100Y0184030D02*
X0169500Y0184030D01*
X0169500Y0185629D02*
X0169100Y0185629D01*
X0168161Y0187227D02*
X0170439Y0187227D01*
X0172038Y0188826D02*
X0166562Y0188826D01*
X0176562Y0188826D02*
X0182038Y0188826D01*
X0180439Y0187227D02*
X0178161Y0187227D01*
X0179100Y0185629D02*
X0179500Y0185629D01*
X0179500Y0184030D02*
X0179100Y0184030D01*
X0179100Y0182432D02*
X0179500Y0182432D01*
X0180979Y0180833D02*
X0177621Y0180833D01*
X0111500Y0118491D02*
X0111100Y0118491D01*
X0111100Y0116893D02*
X0111500Y0116893D01*
X0111500Y0115294D02*
X0111100Y0115294D01*
X0027065Y0193621D02*
X0261535Y0193621D01*
X0262825Y0195220D02*
X0025775Y0195220D01*
X0024048Y0196818D02*
X0264552Y0196818D01*
X0274501Y0083324D02*
X0277000Y0083324D01*
X0277000Y0081726D02*
X0272903Y0081726D01*
X0272781Y0080127D02*
X0277000Y0080127D01*
X0277000Y0078529D02*
X0272781Y0078529D01*
D24*
X0254300Y0106800D02*
X0254300Y0129300D01*
X0251800Y0131800D01*
X0239300Y0131800D01*
X0239300Y0146800D01*
X0236800Y0149300D01*
X0221800Y0149300D01*
X0219300Y0151800D01*
X0219300Y0174300D01*
X0216800Y0176800D01*
X0216800Y0184300D01*
X0204200Y0166800D02*
X0196500Y0174500D01*
X0102000Y0174500D01*
X0099300Y0171800D01*
X0099300Y0136800D01*
X0089300Y0126800D01*
X0066800Y0126800D01*
X0056800Y0116800D01*
X0056800Y0117300D01*
X0086800Y0116800D02*
X0087600Y0116200D01*
X0094200Y0116200D01*
X0108500Y0101900D01*
X0117300Y0101900D01*
X0121700Y0097500D01*
X0121800Y0096800D01*
X0122800Y0096400D01*
X0123900Y0095300D01*
X0213000Y0095300D01*
X0224000Y0106300D01*
X0224300Y0106800D01*
X0214300Y0106800D02*
X0214100Y0107400D01*
X0214100Y0127200D01*
X0209700Y0131600D01*
X0209300Y0131800D01*
X0201800Y0131800D01*
X0189800Y0131800D01*
X0189300Y0131300D01*
X0201800Y0131800D02*
X0201800Y0141800D01*
X0204200Y0166800D02*
X0204300Y0166800D01*
X0144300Y0166800D02*
X0144300Y0151800D01*
X0141800Y0149300D01*
X0136800Y0149300D01*
X0131800Y0144300D01*
X0121800Y0144300D01*
X0125000Y0139300D02*
X0116200Y0139300D01*
X0111800Y0143700D01*
X0111800Y0144300D01*
X0105200Y0147000D02*
X0111800Y0153600D01*
X0111800Y0154300D01*
X0109600Y0159100D02*
X0117300Y0159100D01*
X0121700Y0154700D01*
X0121800Y0154300D01*
X0109600Y0159100D02*
X0103000Y0152500D01*
X0103000Y0110700D01*
X0107400Y0106300D01*
X0121700Y0106300D01*
X0130500Y0097500D01*
X0164600Y0097500D01*
X0173400Y0106300D01*
X0174300Y0106800D01*
X0154300Y0106800D02*
X0153600Y0106300D01*
X0147000Y0099700D01*
X0131600Y0099700D01*
X0122800Y0108500D01*
X0108500Y0108500D01*
X0105200Y0111800D01*
X0105200Y0147000D01*
X0111800Y0134300D02*
X0111800Y0125000D01*
X0121700Y0115100D01*
X0122300Y0114300D01*
X0127200Y0129400D02*
X0127200Y0137100D01*
X0125000Y0139300D01*
X0127200Y0129400D02*
X0143700Y0112900D01*
X0143700Y0107400D01*
X0144300Y0106800D01*
D25*
X0266800Y0079300D03*
X0266800Y0079300D03*
M02*
